<?xml version="1.0" encoding="UTF-8" standalone="no"?>
<!-- Generated by SVGo -->

<svg
   xmlns:dc="http://purl.org/dc/elements/1.1/"
   xmlns:cc="http://creativecommons.org/ns#"
   xmlns:rdf="http://www.w3.org/1999/02/22-rdf-syntax-ns#"
   xmlns:svg="http://www.w3.org/2000/svg"
   xmlns="http://www.w3.org/2000/svg"
   xmlns:sodipodi="http://sodipodi.sourceforge.net/DTD/sodipodi-0.dtd"
   xmlns:inkscape="http://www.inkscape.org/namespaces/inkscape"
   width="368.902mm"
   height="126.014mm"
   viewBox="0.000 0.000 368.902 126.014"
   version="1.1"
   id="svg4264"
   sodipodi:docname="bottom.svg"
   inkscape:version="0.92.1 r15371">
  <metadata
     id="metadata4270">
    <rdf:RDF>
      <cc:Work
         rdf:about="">
        <dc:format>image/svg+xml</dc:format>
        <dc:type
           rdf:resource="http://purl.org/dc/dcmitype/StillImage" />
      </cc:Work>
    </rdf:RDF>
  </metadata>
  <defs
     id="defs4268" />
  <sodipodi:namedview
     pagecolor="#ffffff"
     bordercolor="#666666"
     borderopacity="1"
     objecttolerance="10"
     gridtolerance="10"
     guidetolerance="10"
     inkscape:pageopacity="0"
     inkscape:pageshadow="2"
     inkscape:window-width="3000"
     inkscape:window-height="1936"
     id="namedview4266"
     showgrid="false"
     inkscape:zoom="1.569274"
     inkscape:cx="712.20864"
     inkscape:cy="130.00945"
     inkscape:window-x="0"
     inkscape:window-y="32"
     inkscape:window-maximized="1"
     inkscape:current-layer="svg4264" />
  <polygon
     points="360.402,5.001 360.676,5.011 360.949,5.044 361.219,5.097 361.483,5.172 361.741,5.267 361.990,5.382 362.230,5.516 362.459,5.669 362.675,5.839 362.876,6.026 363.063,6.227 363.233,6.443 363.386,6.672 363.520,6.912 363.635,7.161 363.730,7.419 363.805,7.683 363.858,7.953 363.891,8.226 363.902,8.501 363.902,117.514 363.891,117.789 363.858,118.062 363.805,118.331 363.730,118.596 363.635,118.853 363.520,119.103 363.386,119.343 363.233,119.571 363.063,119.787 362.876,119.989 362.675,120.175 362.459,120.346 362.230,120.498 361.990,120.633 361.741,120.748 361.483,120.843 361.219,120.917 360.949,120.971 360.676,121.003 360.402,121.014 8.501,121.014 8.226,121.003 7.953,120.971 7.683,120.917 7.419,120.843 7.161,120.748 6.912,120.633 6.672,120.498 6.443,120.346 6.227,120.175 6.026,119.989 5.839,119.787 5.669,119.571 5.516,119.343 5.382,119.103 5.267,118.853 5.172,118.596 5.097,118.331 5.044,118.062 5.011,117.789 5.000,117.514 5.001,8.501 5.011,8.226 5.044,7.953 5.097,7.683 5.172,7.419 5.267,7.161 5.382,6.912 5.516,6.672 5.669,6.443 5.839,6.227 6.026,6.026 6.227,5.839 6.443,5.669 6.672,5.516 6.912,5.382 7.161,5.267 7.419,5.172 7.683,5.097 7.953,5.044 8.226,5.011 8.501,5.000"
     style="fill:none;stroke-width:0.050000mm;stroke:red"
     id="polygon4244" />
  <polygon
     points="358.607,116.074 358.38,116.52 358.302,117.014 358.38,117.508 358.607,117.954 358.961,118.308 359.407,118.536 359.902,118.614 360.396,118.536 360.842,118.308 361.196,117.954 361.423,117.508 361.502,117.014 361.423,116.52 361.196,116.074 360.842,115.72 360.396,115.492 359.902,115.414 359.407,115.492 358.961,115.72 "
     style="fill:none;stroke:#ff0000;stroke-width:0.05mm"
     id="polygon4246"
     transform="translate(-1.0583333)" />
  <polygon
     points="242.440,115.492 241.994,115.720 241.640,116.074 241.413,116.520 241.335,117.014 241.413,117.508 241.640,117.954 241.994,118.308 242.440,118.536 242.935,118.614 243.429,118.536 243.875,118.308 244.229,117.954 244.456,117.508 244.535,117.014 244.456,116.520 244.229,116.074 243.875,115.720 243.429,115.492 242.935,115.414"
     style="fill:none;stroke-width:0.050000mm;stroke:red"
     id="polygon4248" />
  <polygon
     points="125.473,115.492 125.027,115.720 124.673,116.074 124.446,116.520 124.368,117.014 124.446,117.508 124.673,117.954 125.027,118.308 125.473,118.536 125.968,118.614 126.462,118.536 126.908,118.308 127.262,117.954 127.489,117.508 127.568,117.014 127.489,116.520 127.262,116.074 126.908,115.720 126.462,115.492 125.968,115.414"
     style="fill:none;stroke-width:0.050000mm;stroke:red"
     id="polygon4250" />
  <polygon
     points="7.706,116.074 7.479,116.52 7.4,117.014 7.479,117.508 7.706,117.954 8.059,118.308 8.506,118.536 9.001,118.614 9.495,118.536 9.941,118.308 10.295,117.954 10.522,117.508 10.601,117.014 10.522,116.52 10.295,116.074 9.941,115.72 9.495,115.492 9.001,115.414 8.506,115.492 8.059,115.72 "
     style="fill:none;stroke:#ff0000;stroke-width:0.05mm"
     id="polygon4252"
     transform="translate(1.0583333)" />
  <polygon
     points="13.001,13.001 13.001,113.014 355.902,113.014 355.902,13.001"
     style="fill:none;stroke-width:0.050000mm;stroke:red"
     id="polygon4254" />
  <polygon
     points="126.462,10.522 126.908,10.295 127.262,9.941 127.489,9.495 127.568,9.001 127.489,8.506 127.262,8.059 126.908,7.706 126.462,7.479 125.968,7.401 125.473,7.479 125.027,7.706 124.673,8.059 124.446,8.506 124.368,9.001 124.446,9.495 124.673,9.941 125.027,10.295 125.473,10.522 125.968,10.601 "
     style="fill:none;stroke:#ff0000;stroke-width:0.05mm"
     id="polygon4256"
     transform="translate(37.041684)" />
  <polygon
     points="243.429,10.522 243.875,10.295 244.229,9.941 244.456,9.495 244.535,9.001 244.456,8.506 244.229,8.059 243.875,7.706 243.429,7.479 242.935,7.401 242.44,7.479 241.994,7.706 241.64,8.059 241.413,8.506 241.335,9.001 241.413,9.495 241.64,9.941 241.994,10.295 242.44,10.522 242.935,10.601 "
     style="fill:none;stroke:#ff0000;stroke-width:0.05mm"
     id="polygon4258"
     transform="translate(-37.041684)" />
  <polygon
     points="358.607,8.059 358.38,8.506 358.302,9.001 358.38,9.495 358.607,9.941 358.961,10.295 359.407,10.522 359.902,10.601 360.396,10.522 360.842,10.295 361.196,9.941 361.423,9.495 361.502,9.001 361.423,8.506 361.196,8.059 360.842,7.706 360.396,7.479 359.902,7.401 359.407,7.479 358.961,7.706 "
     style="fill:none;stroke:#ff0000;stroke-width:0.05mm"
     id="polygon4260"
     transform="translate(-1.0583333)" />
  <polygon
     points="7.706,8.059 7.479,8.506 7.4,9.001 7.479,9.495 7.706,9.941 8.059,10.295 8.506,10.522 9.001,10.601 9.495,10.522 9.941,10.295 10.295,9.941 10.522,9.495 10.601,9.001 10.522,8.506 10.295,8.059 9.941,7.706 9.495,7.479 9.001,7.401 8.506,7.479 8.059,7.706 "
     style="fill:none;stroke:#ff0000;stroke-width:0.05mm"
     id="polygon4262"
     transform="translate(1.0583333)" />
</svg>
