<?xml version="1.0" encoding="UTF-8" standalone="no"?>
<!-- Generated by SVGo -->

<svg
   xmlns:dc="http://purl.org/dc/elements/1.1/"
   xmlns:cc="http://creativecommons.org/ns#"
   xmlns:rdf="http://www.w3.org/1999/02/22-rdf-syntax-ns#"
   xmlns:svg="http://www.w3.org/2000/svg"
   xmlns="http://www.w3.org/2000/svg"
   xmlns:sodipodi="http://sodipodi.sourceforge.net/DTD/sodipodi-0.dtd"
   xmlns:inkscape="http://www.inkscape.org/namespaces/inkscape"
   width="368.902mm"
   height="126.014mm"
   viewBox="0.000 0.000 368.902 126.014"
   version="1.1"
   id="svg4668"
   sodipodi:docname="plate.svg"
   inkscape:version="0.92.1 r15371">
  <metadata
     id="metadata4674">
    <rdf:RDF>
      <cc:Work
         rdf:about="">
        <dc:format>image/svg+xml</dc:format>
        <dc:type
           rdf:resource="http://purl.org/dc/dcmitype/StillImage" />
      </cc:Work>
    </rdf:RDF>
  </metadata>
  <defs
     id="defs4672" />
  <sodipodi:namedview
     pagecolor="#ffffff"
     bordercolor="#666666"
     borderopacity="1"
     objecttolerance="10"
     gridtolerance="10"
     guidetolerance="10"
     inkscape:pageopacity="0"
     inkscape:pageshadow="2"
     inkscape:window-width="3000"
     inkscape:window-height="1936"
     id="namedview4670"
     showgrid="false"
     inkscape:zoom="1.1096443"
     inkscape:cx="833.22887"
     inkscape:cy="49.487729"
     inkscape:window-x="0"
     inkscape:window-y="32"
     inkscape:window-maximized="1"
     inkscape:current-layer="svg4668" />
  <polygon
     points="360.402,5.001 360.676,5.011 360.949,5.044 361.219,5.097 361.483,5.172 361.741,5.267 361.990,5.382 362.230,5.516 362.459,5.669 362.675,5.839 362.876,6.026 363.063,6.227 363.233,6.443 363.386,6.672 363.520,6.912 363.635,7.161 363.730,7.419 363.805,7.683 363.858,7.953 363.891,8.226 363.902,8.501 363.902,117.514 363.891,117.789 363.858,118.062 363.805,118.331 363.730,118.596 363.635,118.853 363.520,119.103 363.386,119.343 363.233,119.571 363.063,119.787 362.876,119.989 362.675,120.175 362.459,120.346 362.230,120.498 361.990,120.633 361.741,120.748 361.483,120.843 361.219,120.917 360.949,120.971 360.676,121.003 360.402,121.014 8.501,121.014 8.226,121.003 7.953,120.971 7.683,120.917 7.419,120.843 7.161,120.748 6.912,120.633 6.672,120.498 6.443,120.346 6.227,120.175 6.026,119.989 5.839,119.787 5.669,119.571 5.516,119.343 5.382,119.103 5.267,118.853 5.172,118.596 5.097,118.331 5.044,118.062 5.011,117.789 5.000,117.514 5.001,8.501 5.011,8.226 5.044,7.953 5.097,7.683 5.172,7.419 5.267,7.161 5.382,6.912 5.516,6.672 5.669,6.443 5.839,6.227 6.026,6.026 6.227,5.839 6.443,5.669 6.672,5.516 6.912,5.382 7.161,5.267 7.419,5.172 7.683,5.097 7.953,5.044 8.226,5.011 8.501,5.000"
     style="fill:none;stroke-width:0.050000mm;stroke:red"
     id="polygon4506" />
  <polygon
     points="358.607,116.074 358.38,116.52 358.302,117.014 358.38,117.508 358.607,117.954 358.961,118.308 359.407,118.536 359.902,118.614 360.396,118.536 360.842,118.308 361.196,117.954 361.423,117.508 361.502,117.014 361.423,116.52 361.196,116.074 360.842,115.72 360.396,115.492 359.902,115.414 359.407,115.492 358.961,115.72 "
     style="fill:none;stroke:#ff0000;stroke-width:0.05mm"
     id="polygon4508"
     transform="translate(-1.0583333)" />
  <polygon
     points="242.440,115.492 241.994,115.720 241.640,116.074 241.413,116.520 241.335,117.014 241.413,117.508 241.640,117.954 241.994,118.308 242.440,118.536 242.935,118.614 243.429,118.536 243.875,118.308 244.229,117.954 244.456,117.508 244.535,117.014 244.456,116.520 244.229,116.074 243.875,115.720 243.429,115.492 242.935,115.414"
     style="fill:none;stroke-width:0.050000mm;stroke:red"
     id="polygon4510" />
  <polygon
     points="125.473,115.492 125.027,115.720 124.673,116.074 124.446,116.520 124.368,117.014 124.446,117.508 124.673,117.954 125.027,118.308 125.473,118.536 125.968,118.614 126.462,118.536 126.908,118.308 127.262,117.954 127.489,117.508 127.568,117.014 127.489,116.520 127.262,116.074 126.908,115.720 126.462,115.492 125.968,115.414"
     style="fill:none;stroke-width:0.050000mm;stroke:red"
     id="polygon4512" />
  <polygon
     points="7.706,116.074 7.479,116.52 7.4,117.014 7.479,117.508 7.706,117.954 8.059,118.308 8.506,118.536 9.001,118.614 9.495,118.536 9.941,118.308 10.295,117.954 10.522,117.508 10.601,117.014 10.522,116.52 10.295,116.074 9.941,115.72 9.495,115.492 9.001,115.414 8.506,115.492 8.059,115.72 "
     style="fill:none;stroke:#ff0000;stroke-width:0.05mm"
     id="polygon4514"
     transform="translate(1.0583333)" />
  <polygon
     points="15.525,96.488 15.525,97.488 14.725,97.488 14.725,100.588 15.525,100.588 15.525,106.388 14.725,106.388 14.725,109.488 15.525,109.488 15.525,110.488 29.526,110.488 29.526,109.488 30.326,109.488 30.326,106.388 29.526,106.388 29.526,100.588 30.326,100.588 30.326,97.488 29.526,97.488 29.526,96.488"
     style="fill:none;stroke-width:0.050000mm;stroke:red"
     id="polygon4516" />
  <polygon
     points="301.275,96.488 301.275,97.488 300.475,97.488 300.475,100.588 301.275,100.588 301.275,106.388 300.475,106.388 300.475,109.488 301.275,109.488 301.275,110.488 315.275,110.488 315.275,109.488 316.075,109.488 316.075,106.388 315.275,106.388 315.275,100.588 316.075,100.588 316.075,97.488 315.275,97.488 315.275,96.488"
     style="fill:none;stroke-width:0.050000mm;stroke:red"
     id="polygon4518" />
  <polygon
     points="320.325,96.488 320.325,97.488 319.525,97.488 319.525,100.588 320.325,100.588 320.325,106.388 319.525,106.388 319.525,109.488 320.325,109.488 320.325,110.488 334.325,110.488 334.325,109.488 335.125,109.488 335.125,106.388 334.325,106.388 334.325,100.588 335.125,100.588 335.125,97.488 334.325,97.488 334.325,96.488"
     style="fill:none;stroke-width:0.050000mm;stroke:red"
     id="polygon4520" />
  <polygon
     points="339.375,96.488 339.375,97.488 338.575,97.488 338.575,100.588 339.375,100.588 339.375,106.388 338.575,106.388 338.575,109.488 339.375,109.488 339.375,110.488 353.375,110.488 353.375,109.488 354.175,109.488 354.175,106.388 353.375,106.388 353.375,100.588 354.175,100.588 354.175,97.488 353.375,97.488 353.375,96.488"
     style="fill:none;stroke-width:0.050000mm;stroke:red"
     id="polygon4522" />
  <polygon
     points="156.019,91.726 156.019,92.726 155.219,92.726 155.219,95.826 156.019,95.826 156.019,96.426 116.394,96.426 116.394,93.196 109.644,93.196 109.644,96.426 108.819,96.426 108.819,99.226 109.644,99.226 109.644,105.496 111.369,105.496 111.369,106.696 114.669,106.696 114.669,105.496 116.394,105.496 116.394,101.026 156.019,101.026 156.019,101.626 155.219,101.626 155.219,104.726 156.019,104.726 156.019,105.726 170.019,105.726 170.019,104.726 170.819,104.726 170.819,101.626 170.019,101.626 170.019,101.026 209.644,101.026 209.644,105.496 211.369,105.496 211.369,106.696 214.669,106.696 214.669,105.496 216.394,105.496 216.394,99.226 217.219,99.226 217.219,96.426 216.394,96.426 216.394,93.196 209.644,93.196 209.644,96.426 170.019,96.426 170.019,95.826 170.819,95.826 170.819,92.726 170.019,92.726 170.019,91.726"
     style="fill:none;stroke-width:0.050000mm;stroke:red"
     id="polygon4524" />
  <polygon
     points="41.719,91.726 41.719,92.726 40.919,92.726 40.919,95.826 41.719,95.826 41.719,101.626 40.919,101.626 40.919,104.726 41.719,104.726 41.719,105.726 55.719,105.726 55.719,104.726 56.519,104.726 56.519,101.626 55.719,101.626 55.719,95.826 56.519,95.826 56.519,92.726 55.719,92.726 55.719,91.726"
     style="fill:none;stroke-width:0.050000mm;stroke:red"
     id="polygon4526" />
  <polygon
     points="63.151,91.726 63.151,92.726 62.351,92.726 62.351,95.826 63.151,95.826 63.151,101.626 62.351,101.626 62.351,104.726 63.151,104.726 63.151,105.726 77.151,105.726 77.151,104.726 77.951,104.726 77.951,101.626 77.151,101.626 77.151,95.826 77.951,95.826 77.951,92.726 77.151,92.726 77.151,91.726"
     style="fill:none;stroke-width:0.050000mm;stroke:red"
     id="polygon4528" />
  <polygon
     points="84.582,91.726 84.582,92.726 83.782,92.726 83.782,95.826 84.582,95.826 84.582,101.626 83.782,101.626 83.782,104.726 84.582,104.726 84.582,105.726 98.582,105.726 98.582,104.726 99.382,104.726 99.382,101.626 98.582,101.626 98.582,95.826 99.382,95.826 99.382,92.726 98.582,92.726 98.582,91.726"
     style="fill:none;stroke-width:0.050000mm;stroke:red"
     id="polygon4530" />
  <polygon
     points="227.457,91.726 227.457,92.726 226.657,92.726 226.657,95.826 227.457,95.826 227.457,101.626 226.657,101.626 226.657,104.726 227.457,104.726 227.457,105.726 241.457,105.726 241.457,104.726 242.257,104.726 242.257,101.626 241.457,101.626 241.457,95.826 242.257,95.826 242.257,92.726 241.457,92.726 241.457,91.726"
     style="fill:none;stroke-width:0.050000mm;stroke:red"
     id="polygon4532" />
  <polygon
     points="251.269,91.726 251.269,92.726 250.469,92.726 250.469,95.826 251.269,95.826 251.269,101.626 250.469,101.626 250.469,104.726 251.269,104.726 251.269,105.726 265.269,105.726 265.269,104.726 266.069,104.726 266.069,101.626 265.269,101.626 265.269,95.826 266.069,95.826 266.069,92.726 265.269,92.726 265.269,91.726"
     style="fill:none;stroke-width:0.050000mm;stroke:red"
     id="polygon4534" />
  <polygon
     points="275.082,91.726 275.082,92.726 274.282,92.726 274.282,95.826 275.082,95.826 275.082,101.626 274.282,101.626 274.282,104.726 275.082,104.726 275.082,105.726 289.082,105.726 289.082,104.726 289.882,104.726 289.882,101.626 289.082,101.626 289.082,95.826 289.882,95.826 289.882,92.726 289.082,92.726 289.082,91.726"
     style="fill:none;stroke-width:0.050000mm;stroke:red"
     id="polygon4536" />
  <polygon
     points="15.525,77.438 15.525,78.438 14.725,78.438 14.725,81.538 15.525,81.538 15.525,87.338 14.725,87.338 14.725,90.438 15.525,90.438 15.525,91.438 29.526,91.438 29.526,90.438 30.326,90.438 30.326,87.338 29.526,87.338 29.526,81.538 30.326,81.538 30.326,78.438 29.526,78.438 29.526,77.438"
     style="fill:none;stroke-width:0.050000mm;stroke:red"
     id="polygon4538" />
  <polygon
     points="320.325,77.438 320.325,78.438 319.525,78.438 319.525,81.538 320.325,81.538 320.325,87.338 319.525,87.338 319.525,90.438 320.325,90.438 320.325,91.438 334.325,91.438 334.325,90.438 335.125,90.438 335.125,87.338 334.325,87.338 334.325,81.538 335.125,81.538 335.125,78.438 334.325,78.438 334.325,77.438"
     style="fill:none;stroke-width:0.050000mm;stroke:red"
     id="polygon4540" />
  <polygon
     points="51.244,72.676 51.244,73.676 50.444,73.676 50.444,76.776 51.244,76.776 51.244,77.376 49.719,77.376 49.719,74.146 42.969,74.146 42.969,77.376 42.144,77.376 42.144,80.176 42.969,80.176 42.969,86.446 44.694,86.446 44.694,87.646 47.994,87.646 47.994,86.446 49.719,86.446 49.719,81.976 51.244,81.976 51.244,82.576 50.444,82.576 50.444,85.676 51.244,85.676 51.244,86.676 65.243,86.676 65.243,85.676 66.044,85.676 66.044,82.576 65.243,82.576 65.243,81.976 66.769,81.976 66.769,86.446 68.494,86.446 68.494,87.646 71.794,87.646 71.794,86.446 73.519,86.446 73.519,80.176 74.344,80.176 74.344,77.376 73.519,77.376 73.519,74.146 66.769,74.146 66.769,77.376 65.243,77.376 65.243,76.776 66.044,76.776 66.044,73.676 65.243,73.676 65.243,72.676"
     style="fill:none;stroke-width:0.050000mm;stroke:red"
     id="polygon4542" />
  <polygon
     points="284.607,72.676 284.607,73.676 283.807,73.676 283.807,76.776 284.607,76.776 284.607,77.376 283.082,77.376 283.082,74.146 276.332,74.146 276.332,77.376 275.507,77.376 275.507,80.176 276.332,80.176 276.332,86.446 278.057,86.446 278.057,87.646 281.357,87.646 281.357,86.446 283.082,86.446 283.082,81.976 284.607,81.976 284.607,82.576 283.807,82.576 283.807,85.676 284.607,85.676 284.607,86.676 298.607,86.676 298.607,85.676 299.407,85.676 299.407,82.576 298.607,82.576 298.607,81.976 300.132,81.976 300.132,86.446 301.857,86.446 301.857,87.646 305.157,87.646 305.157,86.446 306.882,86.446 306.882,80.176 307.707,80.176 307.707,77.376 306.882,77.376 306.882,74.146 300.132,74.146 300.132,77.376 298.607,77.376 298.607,76.776 299.407,76.776 299.407,73.676 298.607,73.676 298.607,72.676"
     style="fill:none;stroke-width:0.050000mm;stroke:red"
     id="polygon4544" />
  <polygon
     points="82.201,72.676 82.201,73.676 81.401,73.676 81.401,76.776 82.201,76.776 82.201,82.576 81.401,82.576 81.401,85.676 82.201,85.676 82.201,86.676 96.201,86.676 96.201,85.676 97.001,85.676 97.001,82.576 96.201,82.576 96.201,76.776 97.001,76.776 97.001,73.676 96.201,73.676 96.201,72.676"
     style="fill:none;stroke-width:0.050000mm;stroke:red"
     id="polygon4546" />
  <polygon
     points="101.251,72.676 101.251,73.676 100.451,73.676 100.451,76.776 101.251,76.776 101.251,82.576 100.451,82.576 100.451,85.676 101.251,85.676 101.251,86.676 115.251,86.676 115.251,85.676 116.051,85.676 116.051,82.576 115.251,82.576 115.251,76.776 116.051,76.776 116.051,73.676 115.251,73.676 115.251,72.676"
     style="fill:none;stroke-width:0.050000mm;stroke:red"
     id="polygon4548" />
  <polygon
     points="120.301,72.676 120.301,73.676 119.501,73.676 119.501,76.776 120.301,76.776 120.301,82.576 119.501,82.576 119.501,85.676 120.301,85.676 120.301,86.676 134.301,86.676 134.301,85.676 135.101,85.676 135.101,82.576 134.301,82.576 134.301,76.776 135.101,76.776 135.101,73.676 134.301,73.676 134.301,72.676"
     style="fill:none;stroke-width:0.050000mm;stroke:red"
     id="polygon4550" />
  <polygon
     points="139.351,72.676 139.351,73.676 138.551,73.676 138.551,76.776 139.351,76.776 139.351,82.576 138.551,82.576 138.551,85.676 139.351,85.676 139.351,86.676 153.351,86.676 153.351,85.676 154.151,85.676 154.151,82.576 153.351,82.576 153.351,76.776 154.151,76.776 154.151,73.676 153.351,73.676 153.351,72.676"
     style="fill:none;stroke-width:0.050000mm;stroke:red"
     id="polygon4552" />
  <polygon
     points="158.401,72.676 158.401,73.676 157.601,73.676 157.601,76.776 158.401,76.776 158.401,82.576 157.601,82.576 157.601,85.676 158.401,85.676 158.401,86.676 172.401,86.676 172.401,85.676 173.201,85.676 173.201,82.576 172.401,82.576 172.401,76.776 173.201,76.776 173.201,73.676 172.401,73.676 172.401,72.676"
     style="fill:none;stroke-width:0.050000mm;stroke:red"
     id="polygon4554" />
  <polygon
     points="177.451,72.676 177.451,73.676 176.651,73.676 176.651,76.776 177.451,76.776 177.451,82.576 176.651,82.576 176.651,85.676 177.451,85.676 177.451,86.676 191.451,86.676 191.451,85.676 192.251,85.676 192.251,82.576 191.451,82.576 191.451,76.776 192.251,76.776 192.251,73.676 191.451,73.676 191.451,72.676"
     style="fill:none;stroke-width:0.050000mm;stroke:red"
     id="polygon4556" />
  <polygon
     points="196.501,72.676 196.501,73.676 195.701,73.676 195.701,76.776 196.501,76.776 196.501,82.576 195.701,82.576 195.701,85.676 196.501,85.676 196.501,86.676 210.501,86.676 210.501,85.676 211.301,85.676 211.301,82.576 210.501,82.576 210.501,76.776 211.301,76.776 211.301,73.676 210.501,73.676 210.501,72.676"
     style="fill:none;stroke-width:0.050000mm;stroke:red"
     id="polygon4558" />
  <polygon
     points="215.551,72.676 215.551,73.676 214.751,73.676 214.751,76.776 215.551,76.776 215.551,82.576 214.751,82.576 214.751,85.676 215.551,85.676 215.551,86.676 229.551,86.676 229.551,85.676 230.351,85.676 230.351,82.576 229.551,82.576 229.551,76.776 230.351,76.776 230.351,73.676 229.551,73.676 229.551,72.676"
     style="fill:none;stroke-width:0.050000mm;stroke:red"
     id="polygon4560" />
  <polygon
     points="234.601,72.676 234.601,73.676 233.801,73.676 233.801,76.776 234.601,76.776 234.601,82.576 233.801,82.576 233.801,85.676 234.601,85.676 234.601,86.676 248.601,86.676 248.601,85.676 249.401,85.676 249.401,82.576 248.601,82.576 248.601,76.776 249.401,76.776 249.401,73.676 248.601,73.676 248.601,72.676"
     style="fill:none;stroke-width:0.050000mm;stroke:red"
     id="polygon4562" />
  <polygon
     points="253.651,72.676 253.651,73.676 252.851,73.676 252.851,76.776 253.651,76.776 253.651,82.576 252.851,82.576 252.851,85.676 253.651,85.676 253.651,86.676 267.651,86.676 267.651,85.676 268.451,85.676 268.451,82.576 267.651,82.576 267.651,76.776 268.451,76.776 268.451,73.676 267.651,73.676 267.651,72.676"
     style="fill:none;stroke-width:0.050000mm;stroke:red"
     id="polygon4564" />
  <polygon
     points="15.525,58.388 15.525,59.388 14.725,59.388 14.725,62.488 15.525,62.488 15.525,68.288 14.725,68.288 14.725,71.388 15.525,71.388 15.525,72.388 29.526,72.388 29.526,71.388 30.326,71.388 30.326,68.288 29.526,68.288 29.526,62.488 30.326,62.488 30.326,59.388 29.526,59.388 29.526,58.388"
     style="fill:none;stroke-width:0.050000mm;stroke:red"
     id="polygon4566" />
  <polygon
     points="294.132,53.626 294.132,54.626 293.332,54.626 293.332,57.726 294.132,57.726 294.132,58.326 292.607,58.326 292.607,55.096 285.857,55.096 285.857,58.326 285.032,58.326 285.032,61.126 285.857,61.126 285.857,67.396 287.582,67.396 287.582,68.596 290.882,68.596 290.882,67.396 292.607,67.396 292.607,62.926 294.132,62.926 294.132,63.526 293.332,63.526 293.332,66.626 294.132,66.626 294.132,67.626 308.132,67.626 308.132,66.626 308.932,66.626 308.932,63.526 308.132,63.526 308.132,62.926 309.657,62.926 309.657,67.396 311.382,67.396 311.382,68.596 314.682,68.596 314.682,67.396 316.407,67.396 316.407,61.126 317.232,61.126 317.232,58.326 316.407,58.326 316.407,55.096 309.657,55.096 309.657,58.326 308.132,58.326 308.132,57.726 308.932,57.726 308.932,54.626 308.132,54.626 308.132,53.626"
     style="fill:none;stroke-width:0.050000mm;stroke:red"
     id="polygon4568" />
  <polygon
     points="46.482,53.626 46.482,54.626 45.682,54.626 45.682,57.726 46.482,57.726 46.482,63.526 45.682,63.526 45.682,66.626 46.482,66.626 46.482,67.626 60.482,67.626 60.482,66.626 61.282,66.626 61.282,63.526 60.482,63.526 60.482,57.726 61.282,57.726 61.282,54.626 60.482,54.626 60.482,53.626"
     style="fill:none;stroke-width:0.050000mm;stroke:red"
     id="polygon4570" />
  <polygon
     points="72.676,53.626 72.676,54.626 71.876,54.626 71.876,57.726 72.676,57.726 72.676,63.526 71.876,63.526 71.876,66.626 72.676,66.626 72.676,67.626 86.676,67.626 86.676,66.626 87.476,66.626 87.476,63.526 86.676,63.526 86.676,57.726 87.476,57.726 87.476,54.626 86.676,54.626 86.676,53.626"
     style="fill:none;stroke-width:0.050000mm;stroke:red"
     id="polygon4572" />
  <polygon
     points="91.726,53.626 91.726,54.626 90.926,54.626 90.926,57.726 91.726,57.726 91.726,63.526 90.926,63.526 90.926,66.626 91.726,66.626 91.726,67.626 105.726,67.626 105.726,66.626 106.526,66.626 106.526,63.526 105.726,63.526 105.726,57.726 106.526,57.726 106.526,54.626 105.726,54.626 105.726,53.626"
     style="fill:none;stroke-width:0.050000mm;stroke:red"
     id="polygon4574" />
  <polygon
     points="110.776,53.626 110.776,54.626 109.976,54.626 109.976,57.726 110.776,57.726 110.776,63.526 109.976,63.526 109.976,66.626 110.776,66.626 110.776,67.626 124.776,67.626 124.776,66.626 125.576,66.626 125.576,63.526 124.776,63.526 124.776,57.726 125.576,57.726 125.576,54.626 124.776,54.626 124.776,53.626"
     style="fill:none;stroke-width:0.050000mm;stroke:red"
     id="polygon4576" />
  <polygon
     points="129.825,53.626 129.825,54.626 129.026,54.626 129.026,57.726 129.825,57.726 129.825,63.526 129.026,63.526 129.026,66.626 129.825,66.626 129.825,67.626 143.826,67.626 143.826,66.626 144.626,66.626 144.626,63.526 143.826,63.526 143.826,57.726 144.626,57.726 144.626,54.626 143.826,54.626 143.826,53.626"
     style="fill:none;stroke-width:0.050000mm;stroke:red"
     id="polygon4578" />
  <polygon
     points="148.876,53.626 148.876,54.626 148.076,54.626 148.076,57.726 148.876,57.726 148.876,63.526 148.076,63.526 148.076,66.626 148.876,66.626 148.876,67.626 162.876,67.626 162.876,66.626 163.676,66.626 163.676,63.526 162.876,63.526 162.876,57.726 163.676,57.726 163.676,54.626 162.876,54.626 162.876,53.626"
     style="fill:none;stroke-width:0.050000mm;stroke:red"
     id="polygon4580" />
  <polygon
     points="167.926,53.626 167.926,54.626 167.126,54.626 167.126,57.726 167.926,57.726 167.926,63.526 167.126,63.526 167.126,66.626 167.926,66.626 167.926,67.626 181.926,67.626 181.926,66.626 182.726,66.626 182.726,63.526 181.926,63.526 181.926,57.726 182.726,57.726 182.726,54.626 181.926,54.626 181.926,53.626"
     style="fill:none;stroke-width:0.050000mm;stroke:red"
     id="polygon4582" />
  <polygon
     points="186.976,53.626 186.976,54.626 186.176,54.626 186.176,57.726 186.976,57.726 186.976,63.526 186.176,63.526 186.176,66.626 186.976,66.626 186.976,67.626 200.976,67.626 200.976,66.626 201.776,66.626 201.776,63.526 200.976,63.526 200.976,57.726 201.776,57.726 201.776,54.626 200.976,54.626 200.976,53.626"
     style="fill:none;stroke-width:0.050000mm;stroke:red"
     id="polygon4584" />
  <polygon
     points="206.026,53.626 206.026,54.626 205.226,54.626 205.226,57.726 206.026,57.726 206.026,63.526 205.226,63.526 205.226,66.626 206.026,66.626 206.026,67.626 220.026,67.626 220.026,66.626 220.826,66.626 220.826,63.526 220.026,63.526 220.026,57.726 220.826,57.726 220.826,54.626 220.026,54.626 220.026,53.626"
     style="fill:none;stroke-width:0.050000mm;stroke:red"
     id="polygon4586" />
  <polygon
     points="225.076,53.626 225.076,54.626 224.276,54.626 224.276,57.726 225.076,57.726 225.076,63.526 224.276,63.526 224.276,66.626 225.076,66.626 225.076,67.626 239.076,67.626 239.076,66.626 239.876,66.626 239.876,63.526 239.076,63.526 239.076,57.726 239.876,57.726 239.876,54.626 239.076,54.626 239.076,53.626"
     style="fill:none;stroke-width:0.050000mm;stroke:red"
     id="polygon4588" />
  <polygon
     points="244.126,53.626 244.126,54.626 243.326,54.626 243.326,57.726 244.126,57.726 244.126,63.526 243.326,63.526 243.326,66.626 244.126,66.626 244.126,67.626 258.126,67.626 258.126,66.626 258.926,66.626 258.926,63.526 258.126,63.526 258.126,57.726 258.926,57.726 258.926,54.626 258.126,54.626 258.126,53.626"
     style="fill:none;stroke-width:0.050000mm;stroke:red"
     id="polygon4590" />
  <polygon
     points="263.176,53.626 263.176,54.626 262.376,54.626 262.376,57.726 263.176,57.726 263.176,63.526 262.376,63.526 262.376,66.626 263.176,66.626 263.176,67.626 277.176,67.626 277.176,66.626 277.976,66.626 277.976,63.526 277.176,63.526 277.176,57.726 277.976,57.726 277.976,54.626 277.176,54.626 277.176,53.626"
     style="fill:none;stroke-width:0.050000mm;stroke:red"
     id="polygon4592" />
  <polygon
     points="339.376,53.626 339.376,54.626 338.576,54.626 338.576,57.726 339.376,57.726 339.376,63.526 338.576,63.526 338.576,66.626 339.376,66.626 339.376,67.626 353.376,67.626 353.376,66.626 354.176,66.626 354.176,63.526 353.376,63.526 353.376,57.726 354.176,57.726 354.176,54.626 353.376,54.626 353.376,53.626"
     style="fill:none;stroke-width:0.050000mm;stroke:red"
     id="polygon4594" />
  <polygon
     points="15.525,39.338 15.525,40.338 14.725,40.338 14.725,43.438 15.525,43.438 15.525,49.238 14.725,49.238 14.725,52.338 15.525,52.338 15.525,53.338 29.526,53.338 29.526,52.338 30.326,52.338 30.326,49.238 29.526,49.238 29.526,43.438 30.326,43.438 30.326,40.338 29.526,40.338 29.526,39.338"
     style="fill:none;stroke-width:0.050000mm;stroke:red"
     id="polygon4596" />
  <polygon
     points="44.101,34.576 44.101,35.576 43.301,35.576 43.301,38.676 44.101,38.676 44.101,44.476 43.301,44.476 43.301,47.576 44.101,47.576 44.101,48.576 58.101,48.576 58.101,47.576 58.901,47.576 58.901,44.476 58.101,44.476 58.101,38.676 58.901,38.676 58.901,35.576 58.101,35.576 58.101,34.576"
     style="fill:none;stroke-width:0.050000mm;stroke:red"
     id="polygon4598" />
  <polygon
     points="67.913,34.576 67.913,35.576 67.113,35.576 67.113,38.676 67.913,38.676 67.913,44.476 67.113,44.476 67.113,47.576 67.913,47.576 67.913,48.576 81.913,48.576 81.913,47.576 82.713,47.576 82.713,44.476 81.913,44.476 81.913,38.676 82.713,38.676 82.713,35.576 81.913,35.576 81.913,34.576"
     style="fill:none;stroke-width:0.050000mm;stroke:red"
     id="polygon4600" />
  <polygon
     points="86.963,34.576 86.963,35.576 86.163,35.576 86.163,38.676 86.963,38.676 86.963,44.476 86.163,44.476 86.163,47.576 86.963,47.576 86.963,48.576 100.963,48.576 100.963,47.576 101.763,47.576 101.763,44.476 100.963,44.476 100.963,38.676 101.763,38.676 101.763,35.576 100.963,35.576 100.963,34.576"
     style="fill:none;stroke-width:0.050000mm;stroke:red"
     id="polygon4602" />
  <polygon
     points="106.013,34.576 106.013,35.576 105.213,35.576 105.213,38.676 106.013,38.676 106.013,44.476 105.213,44.476 105.213,47.576 106.013,47.576 106.013,48.576 120.013,48.576 120.013,47.576 120.813,47.576 120.813,44.476 120.013,44.476 120.013,38.676 120.813,38.676 120.813,35.576 120.013,35.576 120.013,34.576"
     style="fill:none;stroke-width:0.050000mm;stroke:red"
     id="polygon4604" />
  <polygon
     points="125.063,34.576 125.063,35.576 124.263,35.576 124.263,38.676 125.063,38.676 125.063,44.476 124.263,44.476 124.263,47.576 125.063,47.576 125.063,48.576 139.063,48.576 139.063,47.576 139.863,47.576 139.863,44.476 139.063,44.476 139.063,38.676 139.863,38.676 139.863,35.576 139.063,35.576 139.063,34.576"
     style="fill:none;stroke-width:0.050000mm;stroke:red"
     id="polygon4606" />
  <polygon
     points="144.113,34.576 144.113,35.576 143.313,35.576 143.313,38.676 144.113,38.676 144.113,44.476 143.313,44.476 143.313,47.576 144.113,47.576 144.113,48.576 158.113,48.576 158.113,47.576 158.913,47.576 158.913,44.476 158.113,44.476 158.113,38.676 158.913,38.676 158.913,35.576 158.113,35.576 158.113,34.576"
     style="fill:none;stroke-width:0.050000mm;stroke:red"
     id="polygon4608" />
  <polygon
     points="163.163,34.576 163.163,35.576 162.363,35.576 162.363,38.676 163.163,38.676 163.163,44.476 162.363,44.476 162.363,47.576 163.163,47.576 163.163,48.576 177.163,48.576 177.163,47.576 177.963,47.576 177.963,44.476 177.163,44.476 177.163,38.676 177.963,38.676 177.963,35.576 177.163,35.576 177.163,34.576"
     style="fill:none;stroke-width:0.050000mm;stroke:red"
     id="polygon4610" />
  <polygon
     points="182.213,34.576 182.213,35.576 181.413,35.576 181.413,38.676 182.213,38.676 182.213,44.476 181.413,44.476 181.413,47.576 182.213,47.576 182.213,48.576 196.213,48.576 196.213,47.576 197.013,47.576 197.013,44.476 196.213,44.476 196.213,38.676 197.013,38.676 197.013,35.576 196.213,35.576 196.213,34.576"
     style="fill:none;stroke-width:0.050000mm;stroke:red"
     id="polygon4612" />
  <polygon
     points="201.263,34.576 201.263,35.576 200.463,35.576 200.463,38.676 201.263,38.676 201.263,44.476 200.463,44.476 200.463,47.576 201.263,47.576 201.263,48.576 215.263,48.576 215.263,47.576 216.063,47.576 216.063,44.476 215.263,44.476 215.263,38.676 216.063,38.676 216.063,35.576 215.263,35.576 215.263,34.576"
     style="fill:none;stroke-width:0.050000mm;stroke:red"
     id="polygon4614" />
  <polygon
     points="220.313,34.576 220.313,35.576 219.513,35.576 219.513,38.676 220.313,38.676 220.313,44.476 219.513,44.476 219.513,47.576 220.313,47.576 220.313,48.576 234.313,48.576 234.313,47.576 235.113,47.576 235.113,44.476 234.313,44.476 234.313,38.676 235.113,38.676 235.113,35.576 234.313,35.576 234.313,34.576"
     style="fill:none;stroke-width:0.050000mm;stroke:red"
     id="polygon4616" />
  <polygon
     points="239.363,34.576 239.363,35.576 238.563,35.576 238.563,38.676 239.363,38.676 239.363,44.476 238.563,44.476 238.563,47.576 239.363,47.576 239.363,48.576 253.363,48.576 253.363,47.576 254.163,47.576 254.163,44.476 253.363,44.476 253.363,38.676 254.163,38.676 254.163,35.576 253.363,35.576 253.363,34.576"
     style="fill:none;stroke-width:0.050000mm;stroke:red"
     id="polygon4618" />
  <polygon
     points="258.412,34.576 258.412,35.576 257.613,35.576 257.613,38.676 258.412,38.676 258.412,44.476 257.613,44.476 257.613,47.576 258.412,47.576 258.412,48.576 272.413,48.576 272.413,47.576 273.213,47.576 273.213,44.476 272.413,44.476 272.413,38.676 273.213,38.676 273.213,35.576 272.413,35.576 272.413,34.576"
     style="fill:none;stroke-width:0.050000mm;stroke:red"
     id="polygon4620" />
  <polygon
     points="277.463,34.576 277.463,35.576 276.663,35.576 276.663,38.676 277.463,38.676 277.463,44.476 276.663,44.476 276.663,47.576 277.463,47.576 277.463,48.576 291.463,48.576 291.463,47.576 292.263,47.576 292.263,44.476 291.463,44.476 291.463,38.676 292.263,38.676 292.263,35.576 291.463,35.576 291.463,34.576"
     style="fill:none;stroke-width:0.050000mm;stroke:red"
     id="polygon4622" />
  <polygon
     points="301.276,34.576 301.276,35.576 300.476,35.576 300.476,38.676 301.276,38.676 301.276,44.476 300.476,44.476 300.476,47.576 301.276,47.576 301.276,48.576 315.276,48.576 315.276,47.576 316.076,47.576 316.076,44.476 315.276,44.476 315.276,38.676 316.076,38.676 316.076,35.576 315.276,35.576 315.276,34.576"
     style="fill:none;stroke-width:0.050000mm;stroke:red"
     id="polygon4624" />
  <polygon
     points="339.376,34.576 339.376,35.576 338.576,35.576 338.576,38.676 339.376,38.676 339.376,44.476 338.576,44.476 338.576,47.576 339.376,47.576 339.376,48.576 353.376,48.576 353.376,47.576 354.176,47.576 354.176,44.476 353.376,44.476 353.376,38.676 354.176,38.676 354.176,35.576 353.376,35.576 353.376,34.576"
     style="fill:none;stroke-width:0.050000mm;stroke:red"
     id="polygon4626" />
  <polygon
     points="296.513,15.525 296.513,16.526 295.713,16.526 295.713,19.626 296.513,19.626 296.513,20.225 294.988,20.225 294.988,16.995 288.238,16.995 288.238,20.225 287.413,20.225 287.413,23.026 288.238,23.026 288.238,29.295 289.963,29.295 289.963,30.495 293.263,30.495 293.263,29.295 294.988,29.295 294.988,24.826 296.513,24.826 296.513,25.425 295.713,25.425 295.713,28.526 296.513,28.526 296.513,29.526 310.513,29.526 310.513,28.526 311.313,28.526 311.313,25.425 310.513,25.425 310.513,24.826 312.038,24.826 312.038,29.295 313.763,29.295 313.763,30.495 317.063,30.495 317.063,29.295 318.788,29.295 318.788,23.026 319.613,23.026 319.613,20.225 318.788,20.225 318.788,16.995 312.038,16.995 312.038,20.225 310.513,20.225 310.513,19.626 311.313,19.626 311.313,16.526 310.513,16.526 310.513,15.525"
     style="fill:none;stroke-width:0.050000mm;stroke:red"
     id="polygon4628" />
  <polygon
     points="15.525,15.525 15.525,16.526 14.725,16.526 14.725,19.626 15.525,19.626 15.525,25.425 14.725,25.425 14.725,28.526 15.525,28.526 15.525,29.526 29.526,29.526 29.526,28.526 30.326,28.526 30.326,25.425 29.526,25.425 29.526,19.626 30.326,19.626 30.326,16.526 29.526,16.526 29.526,15.525"
     style="fill:none;stroke-width:0.050000mm;stroke:red"
     id="polygon4630" />
  <polygon
     points="39.338,15.525 39.338,16.526 38.538,16.526 38.538,19.626 39.338,19.626 39.338,25.425 38.538,25.425 38.538,28.526 39.338,28.526 39.338,29.526 53.338,29.526 53.338,28.526 54.138,28.526 54.138,25.425 53.338,25.425 53.338,19.626 54.138,19.626 54.138,16.526 53.338,16.526 53.338,15.525"
     style="fill:none;stroke-width:0.050000mm;stroke:red"
     id="polygon4632" />
  <polygon
     points="58.388,15.525 58.388,16.526 57.588,16.526 57.588,19.626 58.388,19.626 58.388,25.425 57.588,25.425 57.588,28.526 58.388,28.526 58.388,29.526 72.388,29.526 72.388,28.526 73.188,28.526 73.188,25.425 72.388,25.425 72.388,19.626 73.188,19.626 73.188,16.526 72.388,16.526 72.388,15.525"
     style="fill:none;stroke-width:0.050000mm;stroke:red"
     id="polygon4634" />
  <polygon
     points="77.438,15.525 77.438,16.526 76.638,16.526 76.638,19.626 77.438,19.626 77.438,25.425 76.638,25.425 76.638,28.526 77.438,28.526 77.438,29.526 91.438,29.526 91.438,28.526 92.238,28.526 92.238,25.425 91.438,25.425 91.438,19.626 92.238,19.626 92.238,16.526 91.438,16.526 91.438,15.525"
     style="fill:none;stroke-width:0.050000mm;stroke:red"
     id="polygon4636" />
  <polygon
     points="96.488,15.525 96.488,16.526 95.688,16.526 95.688,19.626 96.488,19.626 96.488,25.425 95.688,25.425 95.688,28.526 96.488,28.526 96.488,29.526 110.488,29.526 110.488,28.526 111.288,28.526 111.288,25.425 110.488,25.425 110.488,19.626 111.288,19.626 111.288,16.526 110.488,16.526 110.488,15.525"
     style="fill:none;stroke-width:0.050000mm;stroke:red"
     id="polygon4638" />
  <polygon
     points="115.538,15.525 115.538,16.526 114.738,16.526 114.738,19.626 115.538,19.626 115.538,25.425 114.738,25.425 114.738,28.526 115.538,28.526 115.538,29.526 129.538,29.526 129.538,28.526 130.337,28.526 130.337,25.425 129.538,25.425 129.538,19.626 130.337,19.626 130.337,16.526 129.538,16.526 129.538,15.525"
     style="fill:none;stroke-width:0.050000mm;stroke:red"
     id="polygon4640" />
  <polygon
     points="134.588,15.525 134.588,16.526 133.788,16.526 133.788,19.626 134.588,19.626 134.588,25.425 133.788,25.425 133.788,28.526 134.588,28.526 134.588,29.526 148.588,29.526 148.588,28.526 149.388,28.526 149.388,25.425 148.588,25.425 148.588,19.626 149.388,19.626 149.388,16.526 148.588,16.526 148.588,15.525"
     style="fill:none;stroke-width:0.050000mm;stroke:red"
     id="polygon4642" />
  <polygon
     points="153.638,15.525 153.638,16.526 152.838,16.526 152.838,19.626 153.638,19.626 153.638,25.425 152.838,25.425 152.838,28.526 153.638,28.526 153.638,29.526 167.638,29.526 167.638,28.526 168.438,28.526 168.438,25.425 167.638,25.425 167.638,19.626 168.438,19.626 168.438,16.526 167.638,16.526 167.638,15.525"
     style="fill:none;stroke-width:0.050000mm;stroke:red"
     id="polygon4644" />
  <polygon
     points="172.688,15.525 172.688,16.526 171.888,16.526 171.888,19.626 172.688,19.626 172.688,25.425 171.888,25.425 171.888,28.526 172.688,28.526 172.688,29.526 186.688,29.526 186.688,28.526 187.488,28.526 187.488,25.425 186.688,25.425 186.688,19.626 187.488,19.626 187.488,16.526 186.688,16.526 186.688,15.525"
     style="fill:none;stroke-width:0.050000mm;stroke:red"
     id="polygon4646" />
  <polygon
     points="191.738,15.525 191.738,16.526 190.938,16.526 190.938,19.626 191.738,19.626 191.738,25.425 190.938,25.425 190.938,28.526 191.738,28.526 191.738,29.526 205.738,29.526 205.738,28.526 206.538,28.526 206.538,25.425 205.738,25.425 205.738,19.626 206.538,19.626 206.538,16.526 205.738,16.526 205.738,15.525"
     style="fill:none;stroke-width:0.050000mm;stroke:red"
     id="polygon4648" />
  <polygon
     points="210.788,15.525 210.788,16.526 209.988,16.526 209.988,19.626 210.788,19.626 210.788,25.425 209.988,25.425 209.988,28.526 210.788,28.526 210.788,29.526 224.788,29.526 224.788,28.526 225.588,28.526 225.588,25.425 224.788,25.425 224.788,19.626 225.588,19.626 225.588,16.526 224.788,16.526 224.788,15.525"
     style="fill:none;stroke-width:0.050000mm;stroke:red"
     id="polygon4650" />
  <polygon
     points="229.838,15.525 229.838,16.526 229.038,16.526 229.038,19.626 229.838,19.626 229.838,25.425 229.038,25.425 229.038,28.526 229.838,28.526 229.838,29.526 243.838,29.526 243.838,28.526 244.638,28.526 244.638,25.425 243.838,25.425 243.838,19.626 244.638,19.626 244.638,16.526 243.838,16.526 243.838,15.525"
     style="fill:none;stroke-width:0.050000mm;stroke:red"
     id="polygon4652" />
  <polygon
     points="248.888,15.525 248.888,16.526 248.088,16.526 248.088,19.626 248.888,19.626 248.888,25.425 248.088,25.425 248.088,28.526 248.888,28.526 248.888,29.526 262.888,29.526 262.888,28.526 263.688,28.526 263.688,25.425 262.888,25.425 262.888,19.626 263.688,19.626 263.688,16.526 262.888,16.526 262.888,15.525"
     style="fill:none;stroke-width:0.050000mm;stroke:red"
     id="polygon4654" />
  <polygon
     points="267.938,15.525 267.938,16.526 267.138,16.526 267.138,19.626 267.938,19.626 267.938,25.425 267.138,25.425 267.138,28.526 267.938,28.526 267.938,29.526 281.938,29.526 281.938,28.526 282.738,28.526 282.738,25.425 281.938,25.425 281.938,19.626 282.738,19.626 282.738,16.526 281.938,16.526 281.938,15.525"
     style="fill:none;stroke-width:0.050000mm;stroke:red"
     id="polygon4656" />
  <polygon
     points="339.376,15.525 339.376,16.526 338.576,16.526 338.576,19.626 339.376,19.626 339.376,25.425 338.576,25.425 338.576,28.526 339.376,28.526 339.376,29.526 353.376,29.526 353.376,28.526 354.176,28.526 354.176,25.425 353.376,25.425 353.376,19.626 354.176,19.626 354.176,16.526 353.376,16.526 353.376,15.525"
     style="fill:none;stroke-width:0.050000mm;stroke:red"
     id="polygon4658" />
  <polygon
     points="126.462,10.522 126.908,10.295 127.262,9.941 127.489,9.495 127.568,9.001 127.489,8.506 127.262,8.059 126.908,7.706 126.462,7.479 125.968,7.401 125.473,7.479 125.027,7.706 124.673,8.059 124.446,8.506 124.368,9.001 124.446,9.495 124.673,9.941 125.027,10.295 125.473,10.522 125.968,10.601 "
     style="fill:none;stroke:#ff0000;stroke-width:0.05mm"
     id="polygon4660"
     transform="translate(37.041684)" />
  <polygon
     points="243.429,10.522 243.875,10.295 244.229,9.941 244.456,9.495 244.535,9.001 244.456,8.506 244.229,8.059 243.875,7.706 243.429,7.479 242.935,7.401 242.44,7.479 241.994,7.706 241.64,8.059 241.413,8.506 241.335,9.001 241.413,9.495 241.64,9.941 241.994,10.295 242.44,10.522 242.935,10.601 "
     style="fill:none;stroke:#ff0000;stroke-width:0.05mm"
     id="polygon4662"
     transform="translate(-37.041684)" />
  <polygon
     points="358.607,8.059 358.38,8.506 358.302,9.001 358.38,9.495 358.607,9.941 358.961,10.295 359.407,10.522 359.902,10.601 360.396,10.522 360.842,10.295 361.196,9.941 361.423,9.495 361.502,9.001 361.423,8.506 361.196,8.059 360.842,7.706 360.396,7.479 359.902,7.401 359.407,7.479 358.961,7.706 "
     style="fill:none;stroke:#ff0000;stroke-width:0.05mm"
     id="polygon4664"
     transform="translate(-1.0583333)" />
  <polygon
     points="7.706,8.059 7.479,8.506 7.4,9.001 7.479,9.495 7.706,9.941 8.059,10.295 8.506,10.522 9.001,10.601 9.495,10.522 9.941,10.295 10.295,9.941 10.522,9.495 10.601,9.001 10.522,8.506 10.295,8.059 9.941,7.706 9.495,7.479 9.001,7.401 8.506,7.479 8.059,7.706 "
     style="fill:none;stroke:#ff0000;stroke-width:0.05mm"
     id="polygon4666"
     transform="translate(1.0583333)" />
</svg>
