<?xml version="1.0" encoding="UTF-8" standalone="no"?>
<!-- Generated by SVGo -->

<svg
   xmlns:dc="http://purl.org/dc/elements/1.1/"
   xmlns:cc="http://creativecommons.org/ns#"
   xmlns:rdf="http://www.w3.org/1999/02/22-rdf-syntax-ns#"
   xmlns:svg="http://www.w3.org/2000/svg"
   xmlns="http://www.w3.org/2000/svg"
   xmlns:sodipodi="http://sodipodi.sourceforge.net/DTD/sodipodi-0.dtd"
   xmlns:inkscape="http://www.inkscape.org/namespaces/inkscape"
   width="369.302mm"
   height="126.414mm"
   viewBox="0.000 0.000 369.302 126.414"
   version="1.1"
   id="svg1097"
   sodipodi:docname="new-spacer.svg"
   inkscape:version="0.92.4 (5da689c313, 2019-01-14)">
  <metadata
     id="metadata1103">
    <rdf:RDF>
      <cc:Work
         rdf:about="">
        <dc:format>image/svg+xml</dc:format>
        <dc:type
           rdf:resource="http://purl.org/dc/dcmitype/StillImage" />
      </cc:Work>
    </rdf:RDF>
  </metadata>
  <defs
     id="defs1101" />
  <sodipodi:namedview
     pagecolor="#ffffff"
     bordercolor="#666666"
     borderopacity="1"
     objecttolerance="10"
     gridtolerance="10"
     guidetolerance="10"
     inkscape:pageopacity="0"
     inkscape:pageshadow="2"
     inkscape:window-width="1518"
     inkscape:window-height="969"
     id="namedview1099"
     showgrid="false"
     inkscape:zoom="0.5"
     inkscape:cx="1110.5915"
     inkscape:cy="206.3892"
     inkscape:window-x="126"
     inkscape:window-y="285"
     inkscape:window-maximized="0"
     inkscape:current-layer="svg1097" />
  <g
     transform="translate(0.57858473,-0.41009093)"
     style="display:inline"
     id="g1176">
    <polygon
       transform="translate(-0.02126,0.11709)"
       id="polygon1079"
       style="fill:none;stroke:#000000;stroke-width:0.05mm"
       points="360.847,5.245 361.215,5.381 361.571,5.545 361.914,5.737 362.24,5.955 362.549,6.198 362.837,6.465 363.104,6.753 363.347,7.062 363.565,7.388 363.757,7.731 363.921,8.087 364.057,8.455 364.163,8.833 364.24,9.218 364.286,9.608 364.301,10.001 364.302,116.414 364.286,116.806 364.24,117.196 364.163,117.581 364.057,117.959 363.921,118.327 363.757,118.684 363.565,119.026 363.347,119.353 363.104,119.661 362.837,119.95 362.549,120.216 362.24,120.459 361.914,120.677 361.571,120.869 361.215,121.033 360.847,121.169 360.469,121.276 360.084,121.352 359.694,121.399 359.302,121.414 10.001,121.414 9.608,121.399 9.218,121.352 8.833,121.276 8.455,121.169 8.087,121.033 7.731,120.869 7.388,120.677 7.062,120.459 6.753,120.216 6.465,119.95 6.198,119.661 5.955,119.353 5.737,119.026 5.545,118.684 5.381,118.327 5.245,117.959 5.139,117.581 5.062,117.196 5.016,116.806 5,116.414 5.001,10.001 5.016,9.608 5.062,9.218 5.139,8.833 5.245,8.455 5.381,8.087 5.545,7.731 5.737,7.388 5.955,7.062 6.198,6.753 6.465,6.465 6.753,6.198 7.062,5.955 7.388,5.737 7.731,5.545 8.087,5.381 8.455,5.245 8.833,5.139 9.218,5.062 9.608,5.016 10.001,5 315.351,5.001 315.351,13.4 13.401,13.4 13.401,113.014 355.902,113.014 355.902,13.4 329.951,13.4 329.951,5.001 359.302,5.001 359.694,5.016 360.084,5.062 360.469,5.139 " />
    <polygon
       transform="translate(-0.02126,0.11709)"
       id="polygon1081"
       style="fill:none;stroke:#000000;stroke-width:0.05mm"
       points="361.234,118.037 361.433,117.647 361.502,117.214 361.433,116.781 361.234,116.391 360.924,116.081 360.534,115.883 360.102,115.814 359.669,115.883 359.279,116.081 358.969,116.391 358.77,116.781 358.702,117.214 358.77,117.647 358.969,118.037 359.279,118.347 359.669,118.545 360.102,118.614 360.534,118.545 360.924,118.347 " />
    <polygon
       transform="translate(-0.02126,0.11709)"
       id="polygon1083"
       style="fill:none;stroke:#000000;stroke-width:0.05mm"
       points="244.267,118.037 244.466,117.647 244.535,117.214 244.466,116.781 244.267,116.391 243.957,116.081 243.567,115.883 243.135,115.814 242.702,115.883 242.312,116.081 242.002,116.391 241.803,116.781 241.735,117.214 241.803,117.647 242.002,118.037 242.312,118.347 242.702,118.545 243.135,118.614 243.567,118.545 243.957,118.347 " />
    <polygon
       transform="translate(-0.02126,0.11709)"
       id="polygon1085"
       style="fill:none;stroke:#000000;stroke-width:0.05mm"
       points="127.3,118.037 127.499,117.647 127.568,117.214 127.499,116.781 127.3,116.391 126.99,116.081 126.6,115.883 126.168,115.814 125.735,115.883 125.345,116.081 125.035,116.391 124.836,116.781 124.768,117.214 124.836,117.647 125.035,118.037 125.345,118.347 125.735,118.545 126.168,118.614 126.6,118.545 126.99,118.347 " />
    <polygon
       transform="translate(-0.02126,0.11709)"
       id="polygon1087"
       style="fill:none;stroke:#000000;stroke-width:0.05mm"
       points="10.333,118.037 10.532,117.647 10.6,117.214 10.532,116.781 10.333,116.391 10.023,116.081 9.633,115.883 9.2,115.814 8.768,115.883 8.378,116.081 8.068,116.391 7.869,116.781 7.8,117.214 7.869,117.647 8.068,118.037 8.378,118.347 8.768,118.545 9.2,118.614 9.633,118.545 10.023,118.347 " />
    <polygon
       transform="translate(37.020424,0.11709)"
       id="polygon1089"
       style="fill:none;stroke:#000000;stroke-width:0.05mm"
       points="125.035,8.378 124.836,8.768 124.768,9.201 124.836,9.633 125.035,10.023 125.345,10.333 125.735,10.532 126.168,10.601 126.6,10.532 126.99,10.333 127.3,10.023 127.499,9.633 127.568,9.201 127.499,8.768 127.3,8.378 126.99,8.068 126.6,7.869 126.168,7.8 125.735,7.869 125.345,8.068 " />
    <polygon
       transform="translate(-37.062944,0.11709)"
       id="polygon1091"
       style="fill:none;stroke:#000000;stroke-width:0.05mm"
       points="242.002,8.378 241.803,8.768 241.735,9.201 241.803,9.633 242.002,10.023 242.312,10.333 242.702,10.532 243.135,10.601 243.567,10.532 243.957,10.333 244.267,10.023 244.466,9.633 244.535,9.201 244.466,8.768 244.267,8.378 243.957,8.068 243.567,7.869 243.135,7.8 242.702,7.869 242.312,8.068 " />
    <polygon
       transform="translate(-0.02126,0.11709)"
       id="polygon1093"
       style="fill:none;stroke:#000000;stroke-width:0.05mm"
       points="361.234,10.023 361.433,9.633 361.502,9.201 361.433,8.768 361.234,8.378 360.924,8.068 360.534,7.869 360.102,7.8 359.669,7.869 359.279,8.068 358.969,8.378 358.77,8.768 358.702,9.201 358.77,9.633 358.969,10.023 359.279,10.333 359.669,10.532 360.102,10.601 360.534,10.532 360.924,10.333 " />
    <polygon
       transform="translate(-0.02126,0.11709)"
       id="polygon1095"
       style="fill:none;stroke:#000000;stroke-width:0.05mm"
       points="10.333,10.023 10.532,9.633 10.6,9.201 10.532,8.768 10.333,8.378 10.023,8.068 9.633,7.869 9.2,7.801 8.768,7.869 8.378,8.068 8.068,8.378 7.869,8.768 7.8,9.201 7.869,9.633 8.068,10.023 8.378,10.333 8.768,10.532 9.2,10.601 9.633,10.532 10.023,10.333 " />
  </g>
</svg>
