<?xml version="1.0" encoding="UTF-8" standalone="no"?>
<!-- Generated by SVGo -->

<svg
   xmlns:dc="http://purl.org/dc/elements/1.1/"
   xmlns:cc="http://creativecommons.org/ns#"
   xmlns:rdf="http://www.w3.org/1999/02/22-rdf-syntax-ns#"
   xmlns:svg="http://www.w3.org/2000/svg"
   xmlns="http://www.w3.org/2000/svg"
   xmlns:sodipodi="http://sodipodi.sourceforge.net/DTD/sodipodi-0.dtd"
   xmlns:inkscape="http://www.inkscape.org/namespaces/inkscape"
   width="369.302mm"
   height="126.414mm"
   viewBox="0.000 0.000 369.302 126.414"
   version="1.1"
   id="svg2859"
   sodipodi:docname="plate.svg"
   inkscape:version="0.92.1 r15371">
  <metadata
     id="metadata2865">
    <rdf:RDF>
      <cc:Work
         rdf:about="">
        <dc:format>image/svg+xml</dc:format>
        <dc:type
           rdf:resource="http://purl.org/dc/dcmitype/StillImage" />
      </cc:Work>
    </rdf:RDF>
  </metadata>
  <defs
     id="defs2863" />
  <sodipodi:namedview
     pagecolor="#ffffff"
     bordercolor="#666666"
     borderopacity="1"
     objecttolerance="10"
     gridtolerance="10"
     guidetolerance="10"
     inkscape:pageopacity="0"
     inkscape:pageshadow="2"
     inkscape:window-width="3000"
     inkscape:window-height="1936"
     id="namedview2861"
     showgrid="false"
     inkscape:zoom="3.1618686"
     inkscape:cx="681.30741"
     inkscape:cy="381.48112"
     inkscape:window-x="0"
     inkscape:window-y="32"
     inkscape:window-maximized="1"
     inkscape:current-layer="svg2859" />
  <polygon
     points="359.302,5.001 359.694,5.016 360.084,5.062 360.469,5.139 360.847,5.245 361.215,5.381 361.571,5.545 361.914,5.737 362.240,5.955 362.549,6.198 362.837,6.465 363.104,6.753 363.347,7.062 363.565,7.388 363.757,7.731 363.921,8.087 364.057,8.455 364.163,8.833 364.240,9.218 364.286,9.608 364.301,10.001 364.302,116.414 364.286,116.806 364.240,117.196 364.163,117.581 364.057,117.959 363.921,118.327 363.757,118.684 363.565,119.026 363.347,119.353 363.104,119.661 362.837,119.950 362.549,120.216 362.240,120.459 361.914,120.677 361.571,120.869 361.215,121.033 360.847,121.169 360.469,121.276 360.084,121.352 359.694,121.399 359.302,121.414 10.001,121.414 9.608,121.399 9.218,121.352 8.833,121.276 8.455,121.169 8.087,121.033 7.731,120.869 7.388,120.677 7.062,120.459 6.753,120.216 6.465,119.950 6.198,119.661 5.955,119.353 5.737,119.026 5.545,118.684 5.381,118.327 5.245,117.959 5.139,117.581 5.062,117.196 5.016,116.806 5.000,116.414 5.001,10.001 5.016,9.608 5.062,9.218 5.139,8.833 5.245,8.455 5.381,8.087 5.545,7.731 5.737,7.388 5.955,7.062 6.198,6.753 6.465,6.465 6.753,6.198 7.062,5.955 7.388,5.737 7.731,5.545 8.087,5.381 8.455,5.245 8.833,5.139 9.218,5.062 9.608,5.016 10.001,5.000"
     style="fill:none;stroke-width:0.050000mm;stroke:red"
     id="polygon2697" />
  <polygon
     points="359.669,115.883 359.279,116.081 358.969,116.391 358.770,116.781 358.702,117.214 358.770,117.647 358.969,118.037 359.279,118.347 359.669,118.545 360.102,118.614 360.534,118.545 360.924,118.347 361.234,118.037 361.433,117.647 361.502,117.214 361.433,116.781 361.234,116.391 360.924,116.081 360.534,115.883 360.102,115.814"
     style="fill:none;stroke-width:0.050000mm;stroke:red"
     id="polygon2699" />
  <polygon
     points="242.702,115.883 242.312,116.081 242.002,116.391 241.803,116.781 241.735,117.214 241.803,117.647 242.002,118.037 242.312,118.347 242.702,118.545 243.135,118.614 243.567,118.545 243.957,118.347 244.267,118.037 244.466,117.647 244.535,117.214 244.466,116.781 244.267,116.391 243.957,116.081 243.567,115.883 243.135,115.814"
     style="fill:none;stroke-width:0.050000mm;stroke:red"
     id="polygon2701" />
  <polygon
     points="125.735,115.883 125.345,116.081 125.035,116.391 124.836,116.781 124.768,117.214 124.836,117.647 125.035,118.037 125.345,118.347 125.735,118.545 126.168,118.614 126.600,118.545 126.990,118.347 127.300,118.037 127.499,117.647 127.568,117.214 127.499,116.781 127.300,116.391 126.990,116.081 126.600,115.883 126.168,115.814"
     style="fill:none;stroke-width:0.050000mm;stroke:red"
     id="polygon2703" />
  <polygon
     points="8.768,115.883 8.378,116.081 8.068,116.391 7.869,116.781 7.800,117.214 7.869,117.647 8.068,118.037 8.378,118.347 8.768,118.545 9.200,118.614 9.633,118.545 10.023,118.347 10.333,118.037 10.532,117.647 10.600,117.214 10.532,116.781 10.333,116.391 10.023,116.081 9.633,115.883 9.200,115.814"
     style="fill:none;stroke-width:0.050000mm;stroke:red"
     id="polygon2705" />
  <polygon
     points="15.926,96.888 15.926,97.888 15.126,97.888 15.126,100.588 15.926,100.588 15.926,106.788 15.126,106.788 15.126,109.488 15.926,109.488 15.926,110.488 29.526,110.488 29.526,109.488 30.326,109.488 30.326,106.788 29.526,106.788 29.526,100.588 30.326,100.588 30.326,97.888 29.526,97.888 29.526,96.888"
     style="fill:none;stroke-width:0.050000mm;stroke:red"
     id="polygon2707" />
  <polygon
     points="301.675,96.888 301.675,97.888 300.875,97.888 300.875,100.588 301.675,100.588 301.675,106.788 300.875,106.788 300.875,109.488 301.675,109.488 301.675,110.488 315.276,110.488 315.276,109.488 316.076,109.488 316.076,106.788 315.276,106.788 315.276,100.588 316.076,100.588 316.076,97.888 315.276,97.888 315.276,96.888"
     style="fill:none;stroke-width:0.050000mm;stroke:red"
     id="polygon2709" />
  <polygon
     points="320.725,96.888 320.725,97.888 319.925,97.888 319.925,100.588 320.725,100.588 320.725,106.788 319.925,106.788 319.925,109.488 320.725,109.488 320.725,110.488 334.326,110.488 334.326,109.488 335.126,109.488 335.126,106.788 334.326,106.788 334.326,100.588 335.126,100.588 335.126,97.888 334.326,97.888 334.326,96.888"
     style="fill:none;stroke-width:0.050000mm;stroke:red"
     id="polygon2711" />
  <polygon
     points="339.776,96.888 339.776,97.888 338.975,97.888 338.975,100.588 339.776,100.588 339.776,106.788 338.975,106.788 338.975,109.488 339.776,109.488 339.776,110.488 353.376,110.488 353.376,109.488 354.176,109.488 354.176,106.788 353.376,106.788 353.376,100.588 354.176,100.588 354.176,97.888 353.376,97.888 353.376,96.888"
     style="fill:none;stroke-width:0.050000mm;stroke:red"
     id="polygon2713" />
  <polygon
     points="156.419,92.126 156.419,93.126 155.619,93.126 155.619,95.826 156.419,95.826 156.419,96.826 116.394,96.826 116.394,93.596 110.044,93.596 110.044,96.826 109.219,96.826 109.219,99.226 110.044,99.226 110.044,105.496 111.769,105.496 111.769,106.696 114.669,106.696 114.669,105.496 116.394,105.496 116.394,101.026 156.419,101.026 156.419,102.026 155.619,102.026 155.619,104.726 156.419,104.726 156.419,105.726 170.019,105.726 170.019,104.726 170.819,104.726 170.819,102.026 170.019,102.026 170.019,101.026 210.044,101.026 210.044,105.496 211.769,105.496 211.769,106.696 214.669,106.696 214.669,105.496 216.394,105.496 216.394,99.226 217.219,99.226 217.219,96.826 216.394,96.826 216.394,93.596 210.044,93.596 210.044,96.826 170.019,96.826 170.019,95.826 170.819,95.826 170.819,93.126 170.019,93.126 170.019,92.126"
     style="fill:none;stroke-width:0.050000mm;stroke:red"
     id="polygon2715" />
  <polygon
     points="42.119,92.126 42.119,93.126 41.319,93.126 41.319,95.826 42.119,95.826 42.119,102.026 41.319,102.026 41.319,104.726 42.119,104.726 42.119,105.726 55.719,105.726 55.719,104.726 56.519,104.726 56.519,102.026 55.719,102.026 55.719,95.826 56.519,95.826 56.519,93.126 55.719,93.126 55.719,92.126"
     style="fill:none;stroke-width:0.050000mm;stroke:red"
     id="polygon2717" />
  <polygon
     points="63.551,92.126 63.551,93.126 62.750,93.126 62.750,95.826 63.551,95.826 63.551,102.026 62.750,102.026 62.750,104.726 63.551,104.726 63.551,105.726 77.150,105.726 77.150,104.726 77.950,104.726 77.950,102.026 77.150,102.026 77.150,95.826 77.950,95.826 77.950,93.126 77.150,93.126 77.150,92.126"
     style="fill:none;stroke-width:0.050000mm;stroke:red"
     id="polygon2719" />
  <polygon
     points="84.982,92.126 84.982,93.126 84.182,93.126 84.182,95.826 84.982,95.826 84.982,102.026 84.182,102.026 84.182,104.726 84.982,104.726 84.982,105.726 98.582,105.726 98.582,104.726 99.382,104.726 99.382,102.026 98.582,102.026 98.582,95.826 99.382,95.826 99.382,93.126 98.582,93.126 98.582,92.126"
     style="fill:none;stroke-width:0.050000mm;stroke:red"
     id="polygon2721" />
  <polygon
     points="227.857,92.126 227.857,93.126 227.057,93.126 227.057,95.826 227.857,95.826 227.857,102.026 227.057,102.026 227.057,104.726 227.857,104.726 227.857,105.726 241.457,105.726 241.457,104.726 242.257,104.726 242.257,102.026 241.457,102.026 241.457,95.826 242.257,95.826 242.257,93.126 241.457,93.126 241.457,92.126"
     style="fill:none;stroke-width:0.050000mm;stroke:red"
     id="polygon2723" />
  <polygon
     points="251.669,92.126 251.669,93.126 250.869,93.126 250.869,95.826 251.669,95.826 251.669,102.026 250.869,102.026 250.869,104.726 251.669,104.726 251.669,105.726 265.269,105.726 265.269,104.726 266.069,104.726 266.069,102.026 265.269,102.026 265.269,95.826 266.069,95.826 266.069,93.126 265.269,93.126 265.269,92.126"
     style="fill:none;stroke-width:0.050000mm;stroke:red"
     id="polygon2725" />
  <polygon
     points="275.482,92.126 275.482,93.126 274.682,93.126 274.682,95.826 275.482,95.826 275.482,102.026 274.682,102.026 274.682,104.726 275.482,104.726 275.482,105.726 289.082,105.726 289.082,104.726 289.882,104.726 289.882,102.026 289.082,102.026 289.082,95.826 289.882,95.826 289.882,93.126 289.082,93.126 289.082,92.126"
     style="fill:none;stroke-width:0.050000mm;stroke:red"
     id="polygon2727" />
  <polygon
     points="15.926,77.838 15.926,78.838 15.126,78.838 15.126,81.538 15.926,81.538 15.926,87.738 15.126,87.738 15.126,90.438 15.926,90.438 15.926,91.438 29.526,91.438 29.526,90.438 30.326,90.438 30.326,87.738 29.526,87.738 29.526,81.538 30.326,81.538 30.326,78.838 29.526,78.838 29.526,77.838"
     style="fill:none;stroke-width:0.050000mm;stroke:red"
     id="polygon2729" />
  <polygon
     points="320.725,77.838 320.725,78.838 319.925,78.838 319.925,81.538 320.725,81.538 320.725,87.738 319.925,87.738 319.925,90.438 320.725,90.438 320.725,91.438 334.326,91.438 334.326,90.438 335.126,90.438 335.126,87.738 334.326,87.738 334.326,81.538 335.126,81.538 335.126,78.838 334.326,78.838 334.326,77.838"
     style="fill:none;stroke-width:0.050000mm;stroke:red"
     id="polygon2731" />
  <polygon
     points="51.644,73.076 51.644,74.076 50.844,74.076 50.844,76.776 51.644,76.776 51.644,77.776 49.719,77.776 49.719,74.546 43.369,74.546 43.369,77.776 42.544,77.776 42.544,80.176 43.369,80.176 43.369,86.446 45.094,86.446 45.094,87.646 47.994,87.646 47.994,86.446 49.719,86.446 49.719,81.976 51.644,81.976 51.644,82.976 50.844,82.976 50.844,85.676 51.644,85.676 51.644,86.676 65.243,86.676 65.243,85.676 66.044,85.676 66.044,82.976 65.243,82.976 65.243,81.976 67.169,81.976 67.169,86.446 68.894,86.446 68.894,87.646 71.794,87.646 71.794,86.446 73.519,86.446 73.519,80.176 74.344,80.176 74.344,77.776 73.519,77.776 73.519,74.546 67.169,74.546 67.169,77.776 65.243,77.776 65.243,76.776 66.044,76.776 66.044,74.076 65.243,74.076 65.243,73.076"
     style="fill:none;stroke-width:0.050000mm;stroke:red"
     id="polygon2733" />
  <polygon
     points="285.007,73.076 285.007,74.076 284.207,74.076 284.207,76.776 285.007,76.776 285.007,77.776 283.082,77.776 283.082,74.546 276.732,74.546 276.732,77.776 275.907,77.776 275.907,80.176 276.732,80.176 276.732,86.446 278.457,86.446 278.457,87.646 281.357,87.646 281.357,86.446 283.082,86.446 283.082,81.976 285.007,81.976 285.007,82.976 284.207,82.976 284.207,85.676 285.007,85.676 285.007,86.676 298.607,86.676 298.607,85.676 299.407,85.676 299.407,82.976 298.607,82.976 298.607,81.976 300.532,81.976 300.532,86.446 302.257,86.446 302.257,87.646 305.157,87.646 305.157,86.446 306.882,86.446 306.882,80.176 307.707,80.176 307.707,77.776 306.882,77.776 306.882,74.546 300.532,74.546 300.532,77.776 298.607,77.776 298.607,76.776 299.407,76.776 299.407,74.076 298.607,74.076 298.607,73.076"
     style="fill:none;stroke-width:0.050000mm;stroke:red"
     id="polygon2735" />
  <polygon
     points="82.601,73.076 82.601,74.076 81.801,74.076 81.801,76.776 82.601,76.776 82.601,82.976 81.801,82.976 81.801,85.676 82.601,85.676 82.601,86.676 96.201,86.676 96.201,85.676 97.001,85.676 97.001,82.976 96.201,82.976 96.201,76.776 97.001,76.776 97.001,74.076 96.201,74.076 96.201,73.076"
     style="fill:none;stroke-width:0.050000mm;stroke:red"
     id="polygon2737" />
  <polygon
     points="101.651,73.076 101.651,74.076 100.851,74.076 100.851,76.776 101.651,76.776 101.651,82.976 100.851,82.976 100.851,85.676 101.651,85.676 101.651,86.676 115.251,86.676 115.251,85.676 116.051,85.676 116.051,82.976 115.251,82.976 115.251,76.776 116.051,76.776 116.051,74.076 115.251,74.076 115.251,73.076"
     style="fill:none;stroke-width:0.050000mm;stroke:red"
     id="polygon2739" />
  <polygon
     points="120.701,73.076 120.701,74.076 119.901,74.076 119.901,76.776 120.701,76.776 120.701,82.976 119.901,82.976 119.901,85.676 120.701,85.676 120.701,86.676 134.301,86.676 134.301,85.676 135.101,85.676 135.101,82.976 134.301,82.976 134.301,76.776 135.101,76.776 135.101,74.076 134.301,74.076 134.301,73.076"
     style="fill:none;stroke-width:0.050000mm;stroke:red"
     id="polygon2741" />
  <polygon
     points="139.751,73.076 139.751,74.076 138.951,74.076 138.951,76.776 139.751,76.776 139.751,82.976 138.951,82.976 138.951,85.676 139.751,85.676 139.751,86.676 153.351,86.676 153.351,85.676 154.151,85.676 154.151,82.976 153.351,82.976 153.351,76.776 154.151,76.776 154.151,74.076 153.351,74.076 153.351,73.076"
     style="fill:none;stroke-width:0.050000mm;stroke:red"
     id="polygon2743" />
  <polygon
     points="158.801,73.076 158.801,74.076 158.001,74.076 158.001,76.776 158.801,76.776 158.801,82.976 158.001,82.976 158.001,85.676 158.801,85.676 158.801,86.676 172.401,86.676 172.401,85.676 173.201,85.676 173.201,82.976 172.401,82.976 172.401,76.776 173.201,76.776 173.201,74.076 172.401,74.076 172.401,73.076"
     style="fill:none;stroke-width:0.050000mm;stroke:red"
     id="polygon2745" />
  <polygon
     points="177.851,73.076 177.851,74.076 177.051,74.076 177.051,76.776 177.851,76.776 177.851,82.976 177.051,82.976 177.051,85.676 177.851,85.676 177.851,86.676 191.451,86.676 191.451,85.676 192.251,85.676 192.251,82.976 191.451,82.976 191.451,76.776 192.251,76.776 192.251,74.076 191.451,74.076 191.451,73.076"
     style="fill:none;stroke-width:0.050000mm;stroke:red"
     id="polygon2747" />
  <polygon
     points="196.901,73.076 196.901,74.076 196.101,74.076 196.101,76.776 196.901,76.776 196.901,82.976 196.101,82.976 196.101,85.676 196.901,85.676 196.901,86.676 210.501,86.676 210.501,85.676 211.301,85.676 211.301,82.976 210.501,82.976 210.501,76.776 211.301,76.776 211.301,74.076 210.501,74.076 210.501,73.076"
     style="fill:none;stroke-width:0.050000mm;stroke:red"
     id="polygon2749" />
  <polygon
     points="215.951,73.076 215.951,74.076 215.151,74.076 215.151,76.776 215.951,76.776 215.951,82.976 215.151,82.976 215.151,85.676 215.951,85.676 215.951,86.676 229.551,86.676 229.551,85.676 230.351,85.676 230.351,82.976 229.551,82.976 229.551,76.776 230.351,76.776 230.351,74.076 229.551,74.076 229.551,73.076"
     style="fill:none;stroke-width:0.050000mm;stroke:red"
     id="polygon2751" />
  <polygon
     points="235.001,73.076 235.001,74.076 234.201,74.076 234.201,76.776 235.001,76.776 235.001,82.976 234.201,82.976 234.201,85.676 235.001,85.676 235.001,86.676 248.601,86.676 248.601,85.676 249.401,85.676 249.401,82.976 248.601,82.976 248.601,76.776 249.401,76.776 249.401,74.076 248.601,74.076 248.601,73.076"
     style="fill:none;stroke-width:0.050000mm;stroke:red"
     id="polygon2753" />
  <polygon
     points="254.051,73.076 254.051,74.076 253.251,74.076 253.251,76.776 254.051,76.776 254.051,82.976 253.251,82.976 253.251,85.676 254.051,85.676 254.051,86.676 267.651,86.676 267.651,85.676 268.451,85.676 268.451,82.976 267.651,82.976 267.651,76.776 268.451,76.776 268.451,74.076 267.651,74.076 267.651,73.076"
     style="fill:none;stroke-width:0.050000mm;stroke:red"
     id="polygon2755" />
  <polygon
     points="15.926,58.788 15.926,59.788 15.126,59.788 15.126,62.488 15.926,62.488 15.926,68.688 15.126,68.688 15.126,71.388 15.926,71.388 15.926,72.388 29.526,72.388 29.526,71.388 30.326,71.388 30.326,68.688 29.526,68.688 29.526,62.488 30.326,62.488 30.326,59.788 29.526,59.788 29.526,58.788"
     style="fill:none;stroke-width:0.050000mm;stroke:red"
     id="polygon2757" />
  <polygon
     points="294.532,54.026 294.532,55.026 293.732,55.026 293.732,57.726 294.532,57.726 294.532,58.726 292.607,58.726 292.607,55.496 286.257,55.496 286.257,58.726 285.432,58.726 285.432,61.126 286.257,61.126 286.257,67.396 287.982,67.396 287.982,68.596 290.882,68.596 290.882,67.396 292.607,67.396 292.607,62.926 294.532,62.926 294.532,63.926 293.732,63.926 293.732,66.626 294.532,66.626 294.532,67.626 308.132,67.626 308.132,66.626 308.932,66.626 308.932,63.926 308.132,63.926 308.132,62.926 310.057,62.926 310.057,67.396 311.782,67.396 311.782,68.596 314.682,68.596 314.682,67.396 316.407,67.396 316.407,61.126 317.232,61.126 317.232,58.726 316.407,58.726 316.407,55.496 310.057,55.496 310.057,58.726 308.132,58.726 308.132,57.726 308.932,57.726 308.932,55.026 308.132,55.026 308.132,54.026"
     style="fill:none;stroke-width:0.050000mm;stroke:red"
     id="polygon2759" />
  <polygon
     points="46.882,54.026 46.882,55.026 46.082,55.026 46.082,57.726 46.882,57.726 46.882,63.926 46.082,63.926 46.082,66.626 46.882,66.626 46.882,67.626 60.482,67.626 60.482,66.626 61.282,66.626 61.282,63.926 60.482,63.926 60.482,57.726 61.282,57.726 61.282,55.026 60.482,55.026 60.482,54.026"
     style="fill:none;stroke-width:0.050000mm;stroke:red"
     id="polygon2761" />
  <polygon
     points="73.076,54.026 73.076,55.026 72.276,55.026 72.276,57.726 73.076,57.726 73.076,63.926 72.276,63.926 72.276,66.626 73.076,66.626 73.076,67.626 86.676,67.626 86.676,66.626 87.476,66.626 87.476,63.926 86.676,63.926 86.676,57.726 87.476,57.726 87.476,55.026 86.676,55.026 86.676,54.026"
     style="fill:none;stroke-width:0.050000mm;stroke:red"
     id="polygon2763" />
  <polygon
     points="92.126,54.026 92.126,55.026 91.326,55.026 91.326,57.726 92.126,57.726 92.126,63.926 91.326,63.926 91.326,66.626 92.126,66.626 92.126,67.626 105.726,67.626 105.726,66.626 106.525,66.626 106.525,63.926 105.726,63.926 105.726,57.726 106.525,57.726 106.525,55.026 105.726,55.026 105.726,54.026"
     style="fill:none;stroke-width:0.050000mm;stroke:red"
     id="polygon2765" />
  <polygon
     points="111.176,54.026 111.176,55.026 110.376,55.026 110.376,57.726 111.176,57.726 111.176,63.926 110.376,63.926 110.376,66.626 111.176,66.626 111.176,67.626 124.775,67.626 124.775,66.626 125.575,66.626 125.575,63.926 124.775,63.926 124.775,57.726 125.575,57.726 125.575,55.026 124.775,55.026 124.775,54.026"
     style="fill:none;stroke-width:0.050000mm;stroke:red"
     id="polygon2767" />
  <polygon
     points="130.226,54.026 130.226,55.026 129.426,55.026 129.426,57.726 130.226,57.726 130.226,63.926 129.426,63.926 129.426,66.626 130.226,66.626 130.226,67.626 143.826,67.626 143.826,66.626 144.626,66.626 144.626,63.926 143.826,63.926 143.826,57.726 144.626,57.726 144.626,55.026 143.826,55.026 143.826,54.026"
     style="fill:none;stroke-width:0.050000mm;stroke:red"
     id="polygon2769" />
  <polygon
     points="149.276,54.026 149.276,55.026 148.476,55.026 148.476,57.726 149.276,57.726 149.276,63.926 148.476,63.926 148.476,66.626 149.276,66.626 149.276,67.626 162.876,67.626 162.876,66.626 163.676,66.626 163.676,63.926 162.876,63.926 162.876,57.726 163.676,57.726 163.676,55.026 162.876,55.026 162.876,54.026"
     style="fill:none;stroke-width:0.050000mm;stroke:red"
     id="polygon2771" />
  <polygon
     points="168.326,54.026 168.326,55.026 167.526,55.026 167.526,57.726 168.326,57.726 168.326,63.926 167.526,63.926 167.526,66.626 168.326,66.626 168.326,67.626 181.926,67.626 181.926,66.626 182.726,66.626 182.726,63.926 181.926,63.926 181.926,57.726 182.726,57.726 182.726,55.026 181.926,55.026 181.926,54.026"
     style="fill:none;stroke-width:0.050000mm;stroke:red"
     id="polygon2773" />
  <polygon
     points="187.376,54.026 187.376,55.026 186.576,55.026 186.576,57.726 187.376,57.726 187.376,63.926 186.576,63.926 186.576,66.626 187.376,66.626 187.376,67.626 200.976,67.626 200.976,66.626 201.776,66.626 201.776,63.926 200.976,63.926 200.976,57.726 201.776,57.726 201.776,55.026 200.976,55.026 200.976,54.026"
     style="fill:none;stroke-width:0.050000mm;stroke:red"
     id="polygon2775" />
  <polygon
     points="206.426,54.026 206.426,55.026 205.626,55.026 205.626,57.726 206.426,57.726 206.426,63.926 205.626,63.926 205.626,66.626 206.426,66.626 206.426,67.626 220.026,67.626 220.026,66.626 220.826,66.626 220.826,63.926 220.026,63.926 220.026,57.726 220.826,57.726 220.826,55.026 220.026,55.026 220.026,54.026"
     style="fill:none;stroke-width:0.050000mm;stroke:red"
     id="polygon2777" />
  <polygon
     points="225.476,54.026 225.476,55.026 224.676,55.026 224.676,57.726 225.476,57.726 225.476,63.926 224.676,63.926 224.676,66.626 225.476,66.626 225.476,67.626 239.076,67.626 239.076,66.626 239.876,66.626 239.876,63.926 239.076,63.926 239.076,57.726 239.876,57.726 239.876,55.026 239.076,55.026 239.076,54.026"
     style="fill:none;stroke-width:0.050000mm;stroke:red"
     id="polygon2779" />
  <polygon
     points="244.526,54.026 244.526,55.026 243.726,55.026 243.726,57.726 244.526,57.726 244.526,63.926 243.726,63.926 243.726,66.626 244.526,66.626 244.526,67.626 258.126,67.626 258.126,66.626 258.926,66.626 258.926,63.926 258.126,63.926 258.126,57.726 258.926,57.726 258.926,55.026 258.126,55.026 258.126,54.026"
     style="fill:none;stroke-width:0.050000mm;stroke:red"
     id="polygon2781" />
  <polygon
     points="263.576,54.026 263.576,55.026 262.776,55.026 262.776,57.726 263.576,57.726 263.576,63.926 262.776,63.926 262.776,66.626 263.576,66.626 263.576,67.626 277.176,67.626 277.176,66.626 277.976,66.626 277.976,63.926 277.176,63.926 277.176,57.726 277.976,57.726 277.976,55.026 277.176,55.026 277.176,54.026"
     style="fill:none;stroke-width:0.050000mm;stroke:red"
     id="polygon2783" />
  <polygon
     points="339.776,54.026 339.776,55.026 338.976,55.026 338.976,57.726 339.776,57.726 339.776,63.926 338.976,63.926 338.976,66.626 339.776,66.626 339.776,67.626 353.376,67.626 353.376,66.626 354.176,66.626 354.176,63.926 353.376,63.926 353.376,57.726 354.176,57.726 354.176,55.026 353.376,55.026 353.376,54.026"
     style="fill:none;stroke-width:0.050000mm;stroke:red"
     id="polygon2785" />
  <polygon
     points="15.926,39.738 15.926,40.738 15.126,40.738 15.126,43.438 15.926,43.438 15.926,49.638 15.126,49.638 15.126,52.338 15.926,52.338 15.926,53.338 29.526,53.338 29.526,52.338 30.326,52.338 30.326,49.638 29.526,49.638 29.526,43.438 30.326,43.438 30.326,40.738 29.526,40.738 29.526,39.738"
     style="fill:none;stroke-width:0.050000mm;stroke:red"
     id="polygon2787" />
  <polygon
     points="44.501,34.976 44.501,35.976 43.701,35.976 43.701,38.676 44.501,38.676 44.501,44.876 43.701,44.876 43.701,47.576 44.501,47.576 44.501,48.576 58.101,48.576 58.101,47.576 58.901,47.576 58.901,44.876 58.101,44.876 58.101,38.676 58.901,38.676 58.901,35.976 58.101,35.976 58.101,34.976"
     style="fill:none;stroke-width:0.050000mm;stroke:red"
     id="polygon2789" />
  <polygon
     points="68.313,34.976 68.313,35.976 67.513,35.976 67.513,38.676 68.313,38.676 68.313,44.876 67.513,44.876 67.513,47.576 68.313,47.576 68.313,48.576 81.913,48.576 81.913,47.576 82.713,47.576 82.713,44.876 81.913,44.876 81.913,38.676 82.713,38.676 82.713,35.976 81.913,35.976 81.913,34.976"
     style="fill:none;stroke-width:0.050000mm;stroke:red"
     id="polygon2791" />
  <polygon
     points="87.363,34.976 87.363,35.976 86.563,35.976 86.563,38.676 87.363,38.676 87.363,44.876 86.563,44.876 86.563,47.576 87.363,47.576 87.363,48.576 100.963,48.576 100.963,47.576 101.763,47.576 101.763,44.876 100.963,44.876 100.963,38.676 101.763,38.676 101.763,35.976 100.963,35.976 100.963,34.976"
     style="fill:none;stroke-width:0.050000mm;stroke:red"
     id="polygon2793" />
  <polygon
     points="106.413,34.976 106.413,35.976 105.613,35.976 105.613,38.676 106.413,38.676 106.413,44.876 105.613,44.876 105.613,47.576 106.413,47.576 106.413,48.576 120.013,48.576 120.013,47.576 120.813,47.576 120.813,44.876 120.013,44.876 120.013,38.676 120.813,38.676 120.813,35.976 120.013,35.976 120.013,34.976"
     style="fill:none;stroke-width:0.050000mm;stroke:red"
     id="polygon2795" />
  <polygon
     points="125.463,34.976 125.463,35.976 124.663,35.976 124.663,38.676 125.463,38.676 125.463,44.876 124.663,44.876 124.663,47.576 125.463,47.576 125.463,48.576 139.063,48.576 139.063,47.576 139.863,47.576 139.863,44.876 139.063,44.876 139.063,38.676 139.863,38.676 139.863,35.976 139.063,35.976 139.063,34.976"
     style="fill:none;stroke-width:0.050000mm;stroke:red"
     id="polygon2797" />
  <polygon
     points="144.513,34.976 144.513,35.976 143.713,35.976 143.713,38.676 144.513,38.676 144.513,44.876 143.713,44.876 143.713,47.576 144.513,47.576 144.513,48.576 158.113,48.576 158.113,47.576 158.913,47.576 158.913,44.876 158.113,44.876 158.113,38.676 158.913,38.676 158.913,35.976 158.113,35.976 158.113,34.976"
     style="fill:none;stroke-width:0.050000mm;stroke:red"
     id="polygon2799" />
  <polygon
     points="163.563,34.976 163.563,35.976 162.763,35.976 162.763,38.676 163.563,38.676 163.563,44.876 162.763,44.876 162.763,47.576 163.563,47.576 163.563,48.576 177.163,48.576 177.163,47.576 177.963,47.576 177.963,44.876 177.163,44.876 177.163,38.676 177.963,38.676 177.963,35.976 177.163,35.976 177.163,34.976"
     style="fill:none;stroke-width:0.050000mm;stroke:red"
     id="polygon2801" />
  <polygon
     points="182.613,34.976 182.613,35.976 181.813,35.976 181.813,38.676 182.613,38.676 182.613,44.876 181.813,44.876 181.813,47.576 182.613,47.576 182.613,48.576 196.213,48.576 196.213,47.576 197.013,47.576 197.013,44.876 196.213,44.876 196.213,38.676 197.013,38.676 197.013,35.976 196.213,35.976 196.213,34.976"
     style="fill:none;stroke-width:0.050000mm;stroke:red"
     id="polygon2803" />
  <polygon
     points="201.663,34.976 201.663,35.976 200.863,35.976 200.863,38.676 201.663,38.676 201.663,44.876 200.863,44.876 200.863,47.576 201.663,47.576 201.663,48.576 215.263,48.576 215.263,47.576 216.063,47.576 216.063,44.876 215.263,44.876 215.263,38.676 216.063,38.676 216.063,35.976 215.263,35.976 215.263,34.976"
     style="fill:none;stroke-width:0.050000mm;stroke:red"
     id="polygon2805" />
  <polygon
     points="220.713,34.976 220.713,35.976 219.913,35.976 219.913,38.676 220.713,38.676 220.713,44.876 219.913,44.876 219.913,47.576 220.713,47.576 220.713,48.576 234.313,48.576 234.313,47.576 235.113,47.576 235.113,44.876 234.313,44.876 234.313,38.676 235.113,38.676 235.113,35.976 234.313,35.976 234.313,34.976"
     style="fill:none;stroke-width:0.050000mm;stroke:red"
     id="polygon2807" />
  <polygon
     points="239.763,34.976 239.763,35.976 238.963,35.976 238.963,38.676 239.763,38.676 239.763,44.876 238.963,44.876 238.963,47.576 239.763,47.576 239.763,48.576 253.363,48.576 253.363,47.576 254.163,47.576 254.163,44.876 253.363,44.876 253.363,38.676 254.163,38.676 254.163,35.976 253.363,35.976 253.363,34.976"
     style="fill:none;stroke-width:0.050000mm;stroke:red"
     id="polygon2809" />
  <polygon
     points="258.813,34.976 258.813,35.976 258.013,35.976 258.013,38.676 258.813,38.676 258.813,44.876 258.013,44.876 258.013,47.576 258.813,47.576 258.813,48.576 272.413,48.576 272.413,47.576 273.213,47.576 273.213,44.876 272.413,44.876 272.413,38.676 273.213,38.676 273.213,35.976 272.413,35.976 272.413,34.976"
     style="fill:none;stroke-width:0.050000mm;stroke:red"
     id="polygon2811" />
  <polygon
     points="277.863,34.976 277.863,35.976 277.063,35.976 277.063,38.676 277.863,38.676 277.863,44.876 277.063,44.876 277.063,47.576 277.863,47.576 277.863,48.576 291.463,48.576 291.463,47.576 292.263,47.576 292.263,44.876 291.463,44.876 291.463,38.676 292.263,38.676 292.263,35.976 291.463,35.976 291.463,34.976"
     style="fill:none;stroke-width:0.050000mm;stroke:red"
     id="polygon2813" />
  <polygon
     points="301.676,34.976 301.676,35.976 300.876,35.976 300.876,38.676 301.676,38.676 301.676,44.876 300.876,44.876 300.876,47.576 301.676,47.576 301.676,48.576 315.276,48.576 315.276,47.576 316.076,47.576 316.076,44.876 315.276,44.876 315.276,38.676 316.076,38.676 316.076,35.976 315.276,35.976 315.276,34.976"
     style="fill:none;stroke-width:0.050000mm;stroke:red"
     id="polygon2815" />
  <polygon
     points="339.776,34.976 339.776,35.976 338.976,35.976 338.976,38.676 339.776,38.676 339.776,44.876 338.976,44.876 338.976,47.576 339.776,47.576 339.776,48.576 353.376,48.576 353.376,47.576 354.176,47.576 354.176,44.876 353.376,44.876 353.376,38.676 354.176,38.676 354.176,35.976 353.376,35.976 353.376,34.976"
     style="fill:none;stroke-width:0.050000mm;stroke:red"
     id="polygon2817" />
  <polygon
     points="296.913,15.926 296.913,16.926 296.113,16.926 296.113,19.626 296.913,19.626 296.913,20.626 294.988,20.626 294.988,17.396 288.638,17.396 288.638,20.626 287.813,20.626 287.813,23.026 288.638,23.026 288.638,29.296 290.363,29.296 290.363,30.496 293.263,30.496 293.263,29.296 294.988,29.296 294.988,24.826 296.913,24.826 296.913,25.826 296.113,25.826 296.113,28.526 296.913,28.526 296.913,29.526 310.513,29.526 310.513,28.526 311.313,28.526 311.313,25.826 310.513,25.826 310.513,24.826 312.438,24.826 312.438,29.296 314.163,29.296 314.163,30.496 317.063,30.496 317.063,29.296 318.788,29.296 318.788,23.026 319.613,23.026 319.613,20.626 318.788,20.626 318.788,17.396 312.438,17.396 312.438,20.626 310.513,20.626 310.513,19.626 311.313,19.626 311.313,16.926 310.513,16.926 310.513,15.926"
     style="fill:none;stroke-width:0.050000mm;stroke:red"
     id="polygon2819" />
  <polygon
     points="15.926,15.926 15.926,16.926 15.126,16.926 15.126,19.626 15.926,19.626 15.926,25.826 15.126,25.826 15.126,28.526 15.926,28.526 15.926,29.526 29.526,29.526 29.526,28.526 30.326,28.526 30.326,25.826 29.526,25.826 29.526,19.626 30.326,19.626 30.326,16.926 29.526,16.926 29.526,15.926"
     style="fill:none;stroke-width:0.050000mm;stroke:red"
     id="polygon2821" />
  <polygon
     points="39.738,15.926 39.738,16.926 38.938,16.926 38.938,19.626 39.738,19.626 39.738,25.826 38.938,25.826 38.938,28.526 39.738,28.526 39.738,29.526 53.338,29.526 53.338,28.526 54.138,28.526 54.138,25.826 53.338,25.826 53.338,19.626 54.138,19.626 54.138,16.926 53.338,16.926 53.338,15.926"
     style="fill:none;stroke-width:0.050000mm;stroke:red"
     id="polygon2823" />
  <polygon
     points="58.788,15.926 58.788,16.926 57.988,16.926 57.988,19.626 58.788,19.626 58.788,25.826 57.988,25.826 57.988,28.526 58.788,28.526 58.788,29.526 72.388,29.526 72.388,28.526 73.188,28.526 73.188,25.826 72.388,25.826 72.388,19.626 73.188,19.626 73.188,16.926 72.388,16.926 72.388,15.926"
     style="fill:none;stroke-width:0.050000mm;stroke:red"
     id="polygon2825" />
  <polygon
     points="77.838,15.926 77.838,16.926 77.038,16.926 77.038,19.626 77.838,19.626 77.838,25.826 77.038,25.826 77.038,28.526 77.838,28.526 77.838,29.526 91.438,29.526 91.438,28.526 92.238,28.526 92.238,25.826 91.438,25.826 91.438,19.626 92.238,19.626 92.238,16.926 91.438,16.926 91.438,15.926"
     style="fill:none;stroke-width:0.050000mm;stroke:red"
     id="polygon2827" />
  <polygon
     points="96.888,15.926 96.888,16.926 96.088,16.926 96.088,19.626 96.888,19.626 96.888,25.826 96.088,25.826 96.088,28.526 96.888,28.526 96.888,29.526 110.488,29.526 110.488,28.526 111.288,28.526 111.288,25.826 110.488,25.826 110.488,19.626 111.288,19.626 111.288,16.926 110.488,16.926 110.488,15.926"
     style="fill:none;stroke-width:0.050000mm;stroke:red"
     id="polygon2829" />
  <polygon
     points="115.938,15.926 115.938,16.926 115.138,16.926 115.138,19.626 115.938,19.626 115.938,25.826 115.138,25.826 115.138,28.526 115.938,28.526 115.938,29.526 129.538,29.526 129.538,28.526 130.337,28.526 130.337,25.826 129.538,25.826 129.538,19.626 130.337,19.626 130.337,16.926 129.538,16.926 129.538,15.926"
     style="fill:none;stroke-width:0.050000mm;stroke:red"
     id="polygon2831" />
  <polygon
     points="134.988,15.926 134.988,16.926 134.188,16.926 134.188,19.626 134.988,19.626 134.988,25.826 134.188,25.826 134.188,28.526 134.988,28.526 134.988,29.526 148.588,29.526 148.588,28.526 149.388,28.526 149.388,25.826 148.588,25.826 148.588,19.626 149.388,19.626 149.388,16.926 148.588,16.926 148.588,15.926"
     style="fill:none;stroke-width:0.050000mm;stroke:red"
     id="polygon2833" />
  <polygon
     points="154.038,15.926 154.038,16.926 153.238,16.926 153.238,19.626 154.038,19.626 154.038,25.826 153.238,25.826 153.238,28.526 154.038,28.526 154.038,29.526 167.638,29.526 167.638,28.526 168.438,28.526 168.438,25.826 167.638,25.826 167.638,19.626 168.438,19.626 168.438,16.926 167.638,16.926 167.638,15.926"
     style="fill:none;stroke-width:0.050000mm;stroke:red"
     id="polygon2835" />
  <polygon
     points="173.088,15.926 173.088,16.926 172.288,16.926 172.288,19.626 173.088,19.626 173.088,25.826 172.288,25.826 172.288,28.526 173.088,28.526 173.088,29.526 186.688,29.526 186.688,28.526 187.488,28.526 187.488,25.826 186.688,25.826 186.688,19.626 187.488,19.626 187.488,16.926 186.688,16.926 186.688,15.926"
     style="fill:none;stroke-width:0.050000mm;stroke:red"
     id="polygon2837" />
  <polygon
     points="192.138,15.926 192.138,16.926 191.338,16.926 191.338,19.626 192.138,19.626 192.138,25.826 191.338,25.826 191.338,28.526 192.138,28.526 192.138,29.526 205.738,29.526 205.738,28.526 206.538,28.526 206.538,25.826 205.738,25.826 205.738,19.626 206.538,19.626 206.538,16.926 205.738,16.926 205.738,15.926"
     style="fill:none;stroke-width:0.050000mm;stroke:red"
     id="polygon2839" />
  <polygon
     points="211.188,15.926 211.188,16.926 210.388,16.926 210.388,19.626 211.188,19.626 211.188,25.826 210.388,25.826 210.388,28.526 211.188,28.526 211.188,29.526 224.788,29.526 224.788,28.526 225.588,28.526 225.588,25.826 224.788,25.826 224.788,19.626 225.588,19.626 225.588,16.926 224.788,16.926 224.788,15.926"
     style="fill:none;stroke-width:0.050000mm;stroke:red"
     id="polygon2841" />
  <polygon
     points="230.238,15.926 230.238,16.926 229.438,16.926 229.438,19.626 230.238,19.626 230.238,25.826 229.438,25.826 229.438,28.526 230.238,28.526 230.238,29.526 243.838,29.526 243.838,28.526 244.638,28.526 244.638,25.826 243.838,25.826 243.838,19.626 244.638,19.626 244.638,16.926 243.838,16.926 243.838,15.926"
     style="fill:none;stroke-width:0.050000mm;stroke:red"
     id="polygon2843" />
  <polygon
     points="249.288,15.926 249.288,16.926 248.488,16.926 248.488,19.626 249.288,19.626 249.288,25.826 248.488,25.826 248.488,28.526 249.288,28.526 249.288,29.526 262.888,29.526 262.888,28.526 263.688,28.526 263.688,25.826 262.888,25.826 262.888,19.626 263.688,19.626 263.688,16.926 262.888,16.926 262.888,15.926"
     style="fill:none;stroke-width:0.050000mm;stroke:red"
     id="polygon2845" />
  <polygon
     points="268.338,15.926 268.338,16.926 267.538,16.926 267.538,19.626 268.338,19.626 268.338,25.826 267.538,25.826 267.538,28.526 268.338,28.526 268.338,29.526 281.938,29.526 281.938,28.526 282.738,28.526 282.738,25.826 281.938,25.826 281.938,19.626 282.738,19.626 282.738,16.926 281.938,16.926 281.938,15.926"
     style="fill:none;stroke-width:0.050000mm;stroke:red"
     id="polygon2847" />
  <polygon
     points="339.776,15.926 339.776,16.926 338.976,16.926 338.976,19.626 339.776,19.626 339.776,25.826 338.976,25.826 338.976,28.526 339.776,28.526 339.776,29.526 353.376,29.526 353.376,28.526 354.176,28.526 354.176,25.826 353.376,25.826 353.376,19.626 354.176,19.626 354.176,16.926 353.376,16.926 353.376,15.926"
     style="fill:none;stroke-width:0.050000mm;stroke:red"
     id="polygon2849" />
  <polygon
     points="126.6,10.532 126.99,10.333 127.3,10.023 127.499,9.633 127.568,9.201 127.499,8.768 127.3,8.378 126.99,8.068 126.6,7.869 126.168,7.8 125.735,7.869 125.345,8.068 125.035,8.378 124.836,8.768 124.768,9.201 124.836,9.633 125.035,10.023 125.345,10.333 125.735,10.532 126.168,10.601 "
     style="fill:none;stroke:#ff0000;stroke-width:0.05mm"
     id="polygon2851"
     transform="translate(37.041684)" />
  <polygon
     points="243.567,10.532 243.957,10.333 244.267,10.023 244.466,9.633 244.535,9.201 244.466,8.768 244.267,8.378 243.957,8.068 243.567,7.869 243.135,7.8 242.702,7.869 242.312,8.068 242.002,8.378 241.803,8.768 241.735,9.201 241.803,9.633 242.002,10.023 242.312,10.333 242.702,10.532 243.135,10.601 "
     style="fill:none;stroke:#ff0000;stroke-width:0.05mm"
     id="polygon2853"
     transform="translate(-37.041684)" />
  <polygon
     points="359.669,7.869 359.279,8.068 358.969,8.378 358.770,8.768 358.702,9.201 358.770,9.633 358.969,10.023 359.279,10.333 359.669,10.532 360.102,10.601 360.534,10.532 360.924,10.333 361.234,10.023 361.433,9.633 361.502,9.201 361.433,8.768 361.234,8.378 360.924,8.068 360.534,7.869 360.102,7.800"
     style="fill:none;stroke-width:0.050000mm;stroke:red"
     id="polygon2855" />
  <polygon
     points="8.768,7.869 8.378,8.068 8.068,8.378 7.869,8.768 7.800,9.201 7.869,9.633 8.068,10.023 8.378,10.333 8.768,10.532 9.200,10.601 9.633,10.532 10.023,10.333 10.333,10.023 10.532,9.633 10.600,9.201 10.532,8.768 10.333,8.378 10.023,8.068 9.633,7.869 9.200,7.801"
     style="fill:none;stroke-width:0.050000mm;stroke:red"
     id="polygon2857" />
</svg>
